<?xml version="1.0" encoding="utf-8"?>
<!-- Generator: Adobe Illustrator 24.3.0, SVG Export Plug-In . SVG Version: 6.00 Build 0)  -->
<svg version="1.1" xmlns="http://www.w3.org/2000/svg" xmlns:xlink="http://www.w3.org/1999/xlink" x="0px" y="0px"
	 viewBox="0 0 967.25 180.25" style="enable-background:new 0 0 967.25 180.25;" xml:space="preserve">
<style type="text/css">
	.st0{display:none;}
	.st1{display:inline;}
	.st2{fill:#29B86A;}
	.st3{display:inline;fill:#29B86A;}
	.st4{fill:#29B86A;stroke:#29B86A;stroke-width:0.25;stroke-miterlimit:10;}
	.st5{font-family:'Rokkitt-Bold';}
	.st6{font-size:28.5491px;}
	.st7{fill:#2FB56A;}
	.st8{fill:#2FB56A;stroke:#2FB56A;stroke-width:0.25;stroke-miterlimit:10;}
</style>
<g id="ref" class="st0">
</g>
<g id="design" class="st0">
	<g class="st1">
		<path class="st2" d="M629.7,75.31v3.17h-91.9c0.06-1.05,0.13-2.13,0.19-3.17H629.7z"/>
	</g>
	<g class="st1">
		<rect x="556.74" y="5.52" class="st2" width="3.17" height="142.75"/>
	</g>
	<g class="st1">
		<path class="st2" d="M623.32,75.31c-0.82-35.12-29.69-63.44-65-63.44c-10.79,0-20.97,2.63-29.94,7.33v3.62
			c8.88-4.95,19.1-7.77,29.94-7.77c33.56,0,61,26.9,61.82,60.27c0.03,0.51,0.03,1.05,0.03,1.59c0,0.54,0,1.08-0.03,1.59
			c-0.82,33.37-28.26,60.27-61.82,60.27c-8.44,0-16.5-1.71-23.82-4.79c-0.25,1.05-0.54,2.09-0.86,3.11
			c7.61,3.11,15.96,4.85,24.68,4.85c35.31,0,64.17-28.33,65-63.44c0.03-0.51,0.03-1.05,0.03-1.59
			C623.36,76.35,623.36,75.81,623.32,75.31z"/>
	</g>
	<g class="st1">
		<path class="st2" d="M607.46,75.31c-0.82-26.39-22.55-47.58-49.14-47.58c-12.31,0-23.54,4.54-32.17,12.02
			c0.38,0.1,0.76,0.19,1.14,0.32c0.25,0.76,0.22,1.68,0.44,2.47c8.15-7.26,18.84-11.64,30.58-11.64c24.84,0,45.14,19.76,45.96,44.41
			c0.03,0.54,0.03,1.05,0.03,1.59c0,0.54,0,1.05-0.03,1.59c-0.82,24.65-21.13,44.41-45.96,44.41c-8.06,0-15.64-2.06-22.24-5.74
			c-0.06,1.17-0.13,2.32-0.19,3.49c6.72,3.46,14.34,5.42,22.43,5.42c26.58,0,48.31-21.19,49.14-47.58c0.03-0.54,0.03-1.05,0.03-1.59
			C607.49,76.35,607.49,75.85,607.46,75.31z"/>
	</g>
	<g class="st1">
		<path class="st2" d="M591.6,75.31c-0.82-17.64-15.45-31.72-33.28-31.72c-6.76,0-13.04,2.03-18.27,5.49
			c-0.57,1.46-0.86,3.05-0.98,4.63c5.23-4.35,11.96-6.95,19.25-6.95c16.08,0,29.28,12.66,30.1,28.55c0.03,0.54,0.03,1.05,0.03,1.59
			c0,0.54,0,1.05-0.03,1.59c-0.82,15.89-14.02,28.55-30.1,28.55c-8.34,0-15.89-3.39-21.38-8.88c-0.06,1.4-0.1,2.76-0.16,4.12
			c5.8,4.95,13.32,7.93,21.54,7.93c17.83,0,32.45-14.08,33.28-31.72c0.03-0.54,0.03-1.05,0.03-1.59
			C591.63,76.35,591.63,75.85,591.6,75.31z"/>
	</g>
	<circle class="st3" cx="558.33" cy="76.89" r="15.86"/>
	<g class="st1">
		<path class="st4" d="M480.08,175.23c-2.11-0.29-4.52-0.44-6.7-0.89c-21.48-3.58-39-21.33-42.88-42.72
			c-1.37-9.43-1.3-18.99-1.98-28.45c-0.73-11.47-1.38-22.95-2.1-34.42c-0.3-4.01-0.41-8.06-0.78-12.05
			c-0.01-3.56-0.12-7.33-2.57-10.16c4.7-0.13,9.43,0.15,14.15,0.06c0.65-1.88,0.57-3.95,1.16-5.89c0.45-0.05,0.89-0.1,1.35-0.15
			c0.31-4.52,0.02-9.24,0.1-13.83c-0.91-0.15-1.81-0.31-2.74-0.47c0-3.64,0-7.3,0-11.01c1.87-0.03,3.73,0.01,5.6,0.13
			c0,1.26,0,2.52,0,3.8c0.69,0,1.36,0,2.06,0c0-1.26,0-2.53,0-3.81c1.99,0,3.94,0,5.92,0c0,1.3,0,2.6,0,3.92c0.64,0,1.24,0,1.88,0
			c0.05-1.36-0.18-2.64-0.1-4.01c1.84,0,3.67,0,5.51,0c0,3.3,0,6.6,0,9.91c-0.64,0.41-1.34,0.79-2.05,1.09c0,1.27,0,2.49,0,3.74
			c0.54,0,1.08,0,1.63,0c0.09-1,0-2.12,0.03-3.14c0.16-0.16,0.31-0.31,0.48-0.47c1.52,0,3.07,0,4.65,0c0,1.18,0,2.34,0,3.52
			c0.59,0,1.16,0,1.75,0c0.08-1.12,0-2.35,0.03-3.52c1.74,0,3.46,0,5.22,0c0,1.16,0,2.34,0,3.52c0.54,0,1.04,0,1.59,0
			c-0.05-1.81,0.18-3.56,0.1-5.39c-0.82-0.23-1.64-0.46-2.46-0.7c0-3.41,0-6.77,0-10.15c1.76,0,3.51,0,5.3,0c0,1.32,0,2.66,0,4.01
			c0.67,0,1.31,0,1.98,0c0-1.33,0-2.67,0-4.02c1.89,0,3.74,0,5.61,0c0,1.33,0,2.65,0,4.01c0.63,0.04,1.25,0.01,1.88,0.02
			c0-1.35,0-2.67,0-4.02c1.82,0,3.61,0,5.43,0c0,1.33,0,2.65,0,4c0.63,0,1.25,0,1.88,0c0-1.37,0-2.73,0-4.1
			c1.89-0.12,3.87,0.24,5.6-0.15c0,3.34,0,6.63,0,9.96c-0.74,0.45-1.88,0.33-2.63,0.75c0,1.84,0,3.69,0,5.56c0.51,0,1.02,0,1.56,0
			c-0.05-1.11,0.07-2.2,0.12-3.31c1.69,0,3.38,0,5.1,0c0,1.09,0,2.2,0,3.32c0.61,0,1.18,0,1.78,0c0-1.1,0-2.21,0-3.33
			c1.79,0,3.54,0,5.33,0c0.06,1.1-0.12,2.13-0.11,3.22c0.57,0,1.12,0,1.68,0c0-1.2,0-2.39,0-3.58c-0.67-0.26-1.34-0.51-2.04-0.78
			c0-3.31,0-6.65,0-10c1.86,0,3.71,0,5.6,0c0.01,1.25-0.05,2.46,0.13,3.71c0.58,0,1.18,0,1.81,0c0.36-1.12,0.03-2.49,0.14-3.7
			c1.83,0,3.65,0,5.51,0c0,1.22,0,2.46,0,3.71c0.7,0,1.37,0,2.09,0c0.03-1.22-0.04-2.46-0.09-3.68c0.4-0.07,4.43-0.1,5.8-0.03
			c0,3.39,0,6.79,0,10.21c-0.8,0.27-1.64,0.49-2.44,0.8c0,4.49,0,8.94,0,13.39c0.44,0.12,0.87,0.24,1.36,0.38
			c0.28,0.85,0.22,1.91,0.5,2.76c0.03,1.27,0.49,2.47,0.49,3.74c0.05,0.05,0.09,0.09,0.15,0.15c4.28-0.05,8.62,0.11,12.87-0.1
			c0,0.03,0,0.07,0,0.1c-2.7,3.71-2.22,8.47-2.56,12.81c-0.23,5.2-0.54,10.42-0.77,15.64c-1.1,18.19-1.19,36.54-2.78,54.68
			c-2.84,21.87-21.08,40.42-42.65,44.41c-0.18,0.21-0.48-0.01-0.66,0.2c-0.54-0.05-1.05,0.27-1.59,0.2
			c-1.29,0.42-2.84,0.29-4.11,0.59C484.16,175.23,482.12,175.23,480.08,175.23z M428.3,49.57c0.94,19.4,1.81,38.68,2.69,58.12
			c34.51,0,69.01,0,103.49,0c0.93-19.34,1.37-38.75,2.02-58.12C500.41,49.57,464.37,49.57,428.3,49.57z M431.06,109.21
			c0.66,7.44,0.01,15.14,1.66,22.39c4.45,23.03,23.71,40.25,47.07,41.66c24.31,2.19,47.98-16.27,52.76-40.17
			c0.47-1.14,0.43-2.47,0.79-3.62c0.92-6.68,0.72-13.51,1.16-20.27C500.04,109.21,465.58,109.21,431.06,109.21z M482.56,31.03
			c4.51,1.12,7.94,5.32,8.28,9.94c11.32,0,22.61,0,33.91,0c-0.06-4.96,0.15-9.88,0.1-14.84c-4.82,0-9.61,0-14.38,0
			c-0.26,1.49-0.07,2.99-0.12,4.5c-1.17,0-2.3,0-3.46,0c0-1.22,0-2.42,0-3.62c-1.1,0-2.16,0-3.25,0c-0.04,1.21,0.11,2.41-0.13,3.61
			c-1.3,0-2.6,0-3.93,0c0-1.18,0-2.34,0-3.5c-1.03,0-2.04,0-3.06,0c0.14,1.22,0.1,2.39,0.11,3.61c-1.33,0-2.63,0-3.95,0
			c0-2.33,0-4.66,0-6.99c-6.69,0.12-13.4,0.11-20.11,0.1c0.06,2.42-0.14,4.77-0.1,7.17c-1.27,0-2.51,0-3.76,0c0-1.25,0-2.48,0-3.69
			c-0.05-0.05-0.09-0.09-0.13-0.13c-1.02,0.06-2.1-0.12-3.11,0.09c0,1.29,0.01,2.49,0,3.76c-1.28-0.05-2.46-0.15-3.75-0.1
			c0-1.2,0-2.37,0-3.52c-0.99,0-1.97,0-2.96,0c0,1.19,0,2.35,0,3.51c-1.31,0-2.6,0-3.93,0c0-1.61,0-3.21,0-4.81
			c-4.65,0-9.26,0-13.88,0c0,4.96,0,9.92,0,14.86c11.21,0,22.4,0,33.61,0C474.76,36.36,478.07,32.19,482.56,31.03z M480.96,34.49
			c3.24-1.21,6.22,2.15,7.05,5.01c0.55,2.41,0.13,4.94,0.25,7.41c12.82-0.02,25.64-0.15,38.47-0.1c-0.27-1.75-0.18-3.42-0.57-5.14
			c-11.95,0-23.94,0-35.9,0c-0.17-0.49-0.05-0.93-0.23-1.38c0-0.63-0.38-1.18-0.39-1.81c-1.13-3.07-4.02-6.3-7.43-6.49
			c-4.25,1.04-7.16,5.44-7.02,9.7c-11.87,0-23.75,0-35.61,0c-0.05,0.05-0.09,0.09-0.11,0.11c-0.08,1.69-0.51,3.31-0.5,4.98
			c12.67,0,25.31,0,37.94,0C477.08,42.36,476.3,36.89,480.96,34.49z M469.94,14.68c0,2.71,0,5.39,0,8.05c8.45,0,16.89,0,25.31,0
			c0-2.7,0-5.37,0-8.06c-1.08,0.07-2.25-0.13-3.26,0.07c0,1.24,0,2.5,0,3.76c-1.31,0-2.61,0-3.93,0c0-1.28,0-2.55,0-3.82
			c-1.1,0-2.16,0-3.26,0c0,1.28,0,2.56,0,3.82c-1.3,0-2.56,0-3.83,0c0-1.28,0-2.55,0-3.81c-1.24,0-2.44,0-3.65,0
			c0,1.28,0,2.54,0,3.83c-1.32-0.05-2.53,0.18-3.86,0.1c0-1.34,0-2.63,0-3.93C472.28,14.68,471.12,14.68,469.94,14.68z M508.49,24.9
			c6.33,0,12.62,0,18.91,0c0.07-1.55,0.04-8.24-0.03-8.64c-1.26,0-2.52,0-3.8,0c0,1.34,0,2.67,0,4c-1.36,0-2.69,0-4.04,0
			c0.03-1.34-0.14-2.58-0.1-3.92c-1.16,0.06-2.39-0.13-3.47,0.07c0,1.31,0,2.63,0,3.96c-1.38,0-2.74,0-4.13,0c0-1.38,0-2.75,0-4.15
			c-1.15,0.07-2.2,0.15-3.34,0.12C508.49,19.21,508.49,22.05,508.49,24.9z M453.75,20.29c-1.48,0.04-2.8-0.07-4.24-0.1
			c0.07-1.25-0.15-2.47,0.1-3.7c-0.04-0.04-0.09-0.08-0.17-0.14c-1.23,0.08-2.42,0.12-3.69,0.1c0,1.3,0,2.57,0,3.83
			c-1.36,0-2.69,0-4.05,0c0-1.25,0-2.49,0-3.72c-1.13,0-2.23,0-3.32,0c0,2.8,0,5.58,0,8.35c6.15,0,12.27,0,18.4,0
			c0-2.83,0-5.64,0-8.46c-1.04-0.01-2.02,0.07-3.04-0.1C453.75,17.67,453.75,18.96,453.75,20.29z M487.47,39.11
			c-3.28,0.03-6.48-0.16-9.75-0.1c0,0.39,0,0.71,0.01,1.08c3.25,0.1,6.48,0.11,9.74,0.1C487.47,39.82,487.47,39.48,487.47,39.11z
			 M483.43,38.61c0-1.23,0-2.41,0-3.59c-0.12-0.12-0.23-0.23-0.34-0.35c-2.03-0.21-0.83,2.7-1.13,3.93
			C482.46,38.61,482.93,38.61,483.43,38.61z M480.25,35.76c-0.41,0.35-0.82,0.7-1.24,1.06c0,0.56,0,1.17,0,1.78
			c0.46,0,0.91,0,1.36,0C480.45,37.63,480.21,36.74,480.25,35.76z M485.03,35.97c0,0.92,0,1.72,0,2.56
			c0.45,0.04,0.89,0.08,1.35,0.12c0-0.49,0-0.93,0-1.38C485.95,36.88,485.56,36.42,485.03,35.97z"/>
		<path class="st4" d="M507.16,60.31c-7,2.72-8.04-7.22-1.02-8.08c4.97-0.34,9.91,0.51,14.8,1.1c3.86,0.5,7.74,0.64,11.64,0.45
			c0.95,2.31-1.67,4.2-3.7,4.55c-5.9,0.92-11.77-0.5-17.56-1.18c1.33,2.12,3.69,1.78,5.76,2.38c2.83,0.58,5.66,1.11,8.51,1.48
			c1.38,0.17,2.74,0.32,4.12,0.27c1.13,0.31,3.85-0.92,3.38,1.06c-1.47,6.4-15.23,1.77-19.67,0.73c0.19,0.55,0,1.5,0.74,1.56
			c1.92,0.59,3.82,1.25,5.73,1.9c4.01,1.63,8.78,2.41,12.68,2.33c0.62,1.43-0.97,2.88-2.09,3.56c-1.49,0.61-3.26,0.45-4.83,0.32
			c-4.34-0.7-8.66-2.48-12.78-4.19c-1.19,1.86,16.95,9.09,19.33,9.22c1.38,1.21-1.1,3.19-2.4,3.33c-7.38,0.4-14.15-4.75-20.1-8.67
			c-0.25,0.2-0.5,0.41-0.75,0.61c6.44,6.63,14.84,11.64,22.9,15.83c-2.81,6.23-14.37-2.92-17.75-5.55
			c-2.44-1.08-8.89-9.64-10.31-7.8c5.81,7.17,12.45,13.7,19.54,19.66c0.7,1.12,4.58,1.62,3.07,2.94c-5.41,3.68-13.87-6.61-17.83-9.9
			c-3.35-3.76-6.74-7.57-9.8-11.6c-2.67-0.24-0.82,1.6,0.06,2.86c2.98,4.02,5.79,8.36,9.69,11.53c0.74,0.12,0.95,0.75,0.56,1.5
			c-4.35,2.89-9.78-4.49-12.45-7.42c-2.46-1.96-3.44-6.86-6.41-7.34C493,84.2,500.96,96.95,509.09,95c1.55-0.16,3.43-0.33,4.51,1.04
			c0.63,0.84,1.15,2.22,0.03,2.9c-0.71-0.13-0.27-1.53-1.46-1.69c-1.48,3.5-3.31-0.55-5.36,0.53c1.9,1.96,5.4,1.61,6.92,4.09
			c0.9,1.31,0.92,4.09-1.22,3.96c0.06-1.34,1.05-1.57-0.54-2.87c-2.16,3.15-3.62-2.52-5.85-2.35c0.36,1.97,1.81,5.57-1.17,6.11
			c-0.63,0.11-1.28,0.06-1.75-0.5c0.99,0.11,1.72-1.1,1.29-1.95c-0.63,0.12-1.48-0.36-1.53-1.05c-0.12-1.44,0.94-2.84-0.2-4.07
			c-1.79-3.1-4.82,2.26-5.85-1.44c-0.61,0.29-0.79,0.7-0.95,1.28c0.19,0.23,0.06,0.53,0.19,0.82c-1.91,0.07-2-2.68-0.54-3.55
			c1.25-1.03,2.84-0.87,4.35-0.87c-1.71-1.49-3.39-3.33-5.69-3.75c-0.32,1.21-0.18,2.9-1.78,3.1c-0.45-5.13-7.98-7.64-5.79-13.55
			c-1.58,1.38-1.04,3.66-0.42,5.39c-0.39,7.81,5.04,14.98,11.16,19.13c-5.32,2.13-10.21-3.3-12.33-7.75
			c0.01,2.92-0.35,6.09-2.32,8.39c-1.64-2.27-2-5.12-2.39-7.8c-2.01,4.47-6.29,8-11.34,7.59c5.94-4.63,11.09-11.57,10.64-19.48
			c1.12-1.45,1.51-4.55-0.33-5.56c2.95,6.02-6.01,8.74-6.19,14.18c-1.88-0.18-1.62-2.51-1.48-3.87c-1.91,1.09-3.74,2.28-5.07,4
			c0.5,1.05,2.11,0.24,3.04,0.39c2.58-0.27,3.14,4.17,0.57,4.08c0.42-0.82-0.25-2.33-1.11-1.06c-0.75,0.63-1.86,0.45-2.6,0
			c-1.5-1.13-3.12,0.55-3.2,2.1c-0.14,0.72,0.12,1.47-0.02,2.23c-0.04,0.59-0.46,1.45-1.21,1.3c-0.69,0.72,0.31,1.77,1.12,1.6
			c-0.33,1.59-2.58,1.27-3.27,0.02c-1.22-2,0.84-4.08,1.09-6.05c-1.84,1.2-3.38,2.7-4.86,4.23c-1.1,0.47-1.71-1.42-2.53-0.33
			c-0.4,0.76-0.14,1.34,0.14,2.04c-0.66,0.77-1.49-0.4-1.7-1.04c-1.51-4.54,5.52-3.83,6.79-6.74c-1.28-0.39-2.1,1.36-3.35,0.79
			c-0.56-0.15-0.93-0.69-1.01-1.31c-1.06-0.42-1.5,0.98-1.45,1.83c-2.66-1.81,0.69-4.56,2.92-4.19c2.6,0.41,5.35,0.62,7.59-1.09
			c2.06-1.69,14.65-15.49,11.3-16.6c-3.33,3.85-11.96,18.67-17.66,14.95c4.35-4.71,8.66-9.82,12.02-15.38
			c-1.65-0.54-2.41,0.32-3.25,1.6c-1.05,1.24-2.17,2.42-3.22,3.65c-4.61,5.12-9.3,10.28-14.92,14.35c-1.74,1.07-3.57,2.1-5.64,2.16
			c-1.19-0.06-3.54-1.21-1.47-2.2c8.12-5.98,15.16-13.38,21.83-20.89c-2.94-1.13-4.86,3.66-7.25,5.11c-2.25,2.1-4.69,4-7.12,5.88
			c-2.84,1.9-11.7,7.81-13.45,2.66c8.14-4.1,15.52-9.67,22.39-15.69c-1.37-2.12-5.48,2.89-7.5,3.49c-4.2,2.03-8.99,5.61-13.8,4.26
			c-1.1-0.19-3.43-2.41-1.39-2.72c6.85-1.96,13.16-5.72,19.42-9.09c-0.63-2.4-2.72,0.32-4.37,0.58c-3.95,1.29-7.91,3.33-12.13,3.08
			c-1.62,0.16-5.06-2.01-3.36-3.62c1.25-0.15,2.6-0.12,3.77-0.5c4.97-0.8,9.7-2.87,14.49-4.34c0.1-0.45-0.19-0.88-0.05-1.33
			c-4.79,0.61-9.81,2.89-14.68,2.22c-1.94-0.2-5-1.68-4.32-4.05c1.24-0.56,2.93,0.32,4.31-0.09c2.52-0.14,4.98-0.56,7.48-1.01
			c3.45-0.94,7.56-0.86,10.2-3.49c-6.28,0.64-13.55,3.69-19.51,0.21c-0.9-0.64-2.93-2.27-1.47-3.19c5.57,0.2,10.97-0.6,16.47-1.18
			c4.79-0.25,14.57-3.8,14.42,4.16c-0.29,2.1-2.1,3.79-4.22,3.8c-0.33,0.11-0.82-0.32-1.14-0.26c-0.97,0.35-1.37,1.6-1.53,2.53
			c-0.29,4.53,5.54,6.21,9.03,4.54c2.33-1.31,5.84-1.82,7.2,1.01c0.18,0.36,0.08,0.9,0.69,0.76c0.19-1.28,1.5-2.11,2.68-2.38
			c-0.02-1.89,1.18-3.81,3.03-4.42c-1.7-0.99-3.59,0.22-5.34-0.34c0.75-0.76,1.88-0.94,2.86-1.37c-2.45-1.16-5.96-0.46-8.13-2.68
			c-0.01-1,2.09,0.67,2.82,0.56c2.45,0.22,4.86,0.34,7.26,0.69c-1.05-1.77-4.65-5.05-5.97-1.95c-3.66-1.91,0.7-5.54,3.28-5.74
			c3.53-0.67,7.22-0.35,10.46,1.06c-0.42,0.77-1.45,0.44-2.18,0.73c3.05,3.81,2.3,8.82,1.06,13.19c1.9-0.27,3.47,1.4,3.82,3.17
			c3.17-5.02,6.39-1.86,10.65-1.21C505.6,69.07,510.09,64.11,507.16,60.31z M479.09,54.78c-0.43-0.05-0.49-0.7-0.31-1.1
			c-0.56-0.33-1.63,0.3-1.87-0.41c0.19-0.52,1.05-0.48,0.98-1.06c-0.5,0.03-0.91,0.56-1.38,0.7c-0.82,0.2-1.65,0.53-2.29,1.15
			c-0.78,0.71-1.2,1.82-0.46,2.73c0.07,0.1,0.21,0.53,0.39,0.27c1.22-3.73,8.57,2.1,6.77,3.92c-1.35,0.32-2.71,0.51-4.05,0.91
			c-0.1,0.14-0.17,0.25-0.26,0.38c0.91,0.04,1.7-0.27,2.61-0.2c0.71-0.38,2.85,0.51,2.54-0.8c-0.22-2-0.34-4.83-1.99-6.1
			c1.14,0.36,1.89-1.81,0.59-1.42c0.1,0.5-0.18,0.82-0.65,0.71c-0.35-0.28,0.12-0.59-0.07-0.86
			C478.92,53.45,478.85,54.32,479.09,54.78z M453.26,105.99c0.14-0.33,0.08-0.47-0.06-0.75c-0.58-1.3,0.87-2.19,1.51-3.14
			c-0.31,1.98,1.79,2.32,2.35,0.47c1.67-1.43,3.47-2.83,5.04-4.4c-0.39,2.18-1.71,4.24-2.15,6.43c0.04,1.18,0.96,2.23,2.16,2.14
			c1.13-0.46-0.62-0.73-0.85-1.33c-0.68-3.46,1.48,0.09,1.55-2.67c-0.41-1.84,0.43-5.3,2.78-5.04c1.01,0.69,4.37,1.71,3.28-0.55
			c1.48-0.08,1.93,1.13,1.86,2.37c0.87-0.68,0.93-1.64,0.47-2.5c-1.45-1.85-3.89,0.44-5.66-0.83c0.16-2.82,10.29-5.9,4.91-7.8
			c-3.5,2.64-6.32,6.44-9.72,9.33c-1.21,0.92-2.4,1.96-3.68,2.77C454.4,101.16,450.19,102.82,453.26,105.99z M500.69,95.65
			c-1.29,0.71-2.8-0.38-4.08,0.43c-1.39,0.24-2.29,2.22-0.98,3.15c0.17-1.33,0.76-2.26,2.35-2.22c-1.17,0.44-0.17,2.04,0.8,1.23
			c2.1-2.08,5.55,0.56,4.89,3.16c-0.97,1.14,0.55,3.36,1.44,1.64c0.43,0.23,0.15,0.48,0.02,0.92c0.16,1.07-0.17,1.93-1.14,2.37
			c1.36,0.5,2.43-0.81,2.43-2.08c-0.4-1.38-0.69-2.82-1.21-4.18c-0.11-0.45-0.92-0.87-0.52-1.34c1.06,1.2,2.97,1.45,3.7,2.85
			c0.35,1.51,3.43,2.92,3.02,0.46c1.12,0.25,1.66,1.08,1.8,2.15c0.23,0.41-0.26,0.78-0.14,1.18c2.81-1.97-0.96-5.09-3.2-5.53
			c-3.01-1.1-5.57-3.2-7.88-5.37c-2.19-0.86-5.88-8.38-7.79-4.92C493.99,91.1,500.1,93.69,500.69,95.65z M511.15,96.48
			c1.05-0.18,1.95,0.32,2.18,1.37c0.23,1.26,0.92-0.39,0.43-0.86c-0.88-2.29-3.5-1.75-5.37-1.42c-1.78,0.35-3.48-0.69-5.19-0.61
			c1.2,1.94,3.32,2.12,5.38,2.24c0.8,0.89,2.32,1.49,2.93,0.11C511.38,96.97,511.04,96.93,511.15,96.48z M452.72,98.66
			c0.4-1.2,1.33-1.85,2.59-1.9c-1.08,1.92,1.17,1.99,2.33,1c1.74-0.33,3.63-0.34,4.58-2.15c-1.54,0.01-3.03,0.62-4.58,0.27
			C455.82,95.47,451.55,95.93,452.72,98.66z M477.45,59.5c-2.15,0.07-4.13-0.41-6.15-0.73c1.63,1.34,4.05,1.14,5.99,1.44
			C477.35,59.98,477.39,59.77,477.45,59.5z"/>
		<path class="st4" d="M464.24,119.55c-0.51-0.33-0.63-0.79-0.65-1.31c-0.92,0.29-0.85,1.26-1.31,1.89
			c-0.18-0.18-0.34-0.34-0.5-0.51c-1.26,0.1-0.91-2.54-0.73-3.36c-0.83-0.78-0.7-3.1,0.7-3.14c0.45,0.07,0.64-0.08,0.56-0.56
			c-0.56-0.52-1.53,0.73-1.96-0.15c0.1-1.4,2.01-0.68,2.98-0.98c4.51-0.89,9.36,0.69,13.7-0.78c0.78,0.41,0.05,1.38-0.59,1.62
			c-0.28,0.14-1.2,0.05-0.76,0.55c0.8,0.08,1.48-0.27,2.17-0.64c0.64,0.74-0.03,0.88-0.69,1.04c-0.63,0.23-0.97,0.79-1.38,1.4
			c-0.31,0.17-0.66,0.08-0.89,0.4c0.25,0.11,0.42,0.28,0.71,0.08c0.33-0.04,0.69-0.01,0.88-0.38c3.79-4.28,5.07,6.66,0.44,4.96
			c-1.49-0.56,0.97,2.03,3.04-0.22c0.23,0.63,0.47,1.29,0.4,2.06c-1.7-0.91-3.19-0.39-0.64,0.68c1.38,0.85,1.02,2.4,1.05,3.82
			c-0.51-0.79-1.55-1.61-2.47-1.12c2.06,1.2,2.88,3.58,1.29,5.54c0.12-0.98-0.69-2.2-1.76-2.14c1.25,1.45,1.65,3.79-0.14,5.22
			c-0.36-0.64-0.42-1.85-1.34-1.84c0.69,1.6,1,3.56-1.09,4.45c0.08-0.69,0.53-1.6-0.29-2.02c0.01,1.25-0.47,2.39-1.39,3.25
			c2.87,0.36,5.32-3.84,7.03-6.07c1.72-0.56,3.93-0.38,5.81-0.61c7.15-0.94,14.48-0.32,21.69-0.09c5.36-0.25,15.24,1.69,18.52-3.33
			c0.94-1.83-0.24-3.74-2.06-4.32c-6.28-1.87-13.29-0.34-19.73-1.54c-4.63-0.82-7.69-4.77-12.19-5.81c-4.1-0.54-4.64,3.22-1.46,2.66
			c2.61-0.3,6.05,0.52,7,3.36c0.44,1.73-2.01-0.33-2.98,0.18c-0.48-0.09-0.89,0.17-1.35,0.2c-0.81-0.04-3.25-0.3-0.87,0.44
			c2.83,0.28,6.25,0.23,8.34,2.49c0.7,0.78,1.98,3.21,0.08,2.97c-0.58-0.44-1.18-0.78-1.93-0.78c-2.94-0.45-6,0.77-8.83-0.43
			c-7.44-1.79-7.55-12.97,0.35-13.95c6.64-0.84,10.69,6.78,17.23,6.32c1.05-0.21-1.41-1.16-1.77-1.6c-1.68-1.95-3.72-5.04-6.68-4.4
			c1.07-1.27,3.4-0.91,4.92-0.74c4.65,0.08,5.63,7.23,10.12,6.88c-3.98-3.39-0.9-4.84-6.56-6.81c9.16-1.9,6.4,5.31,11.8,7.14
			c1.53-0.15-0.51-1.02-0.67-1.64c-0.81-1.96-1.51-4.23-3.73-5c0.44-0.22,0.86-0.03,1.27-0.23c6.47,0.41,4.48,4.12,7.51,7.08
			c6.99,2.55,6.66,9.89,0.14,12.75c-1.93,0.65-3.87,0.88-5.87,1.06c-4.02-0.08-8.52,1.31-11.99-1.19c-0.63-0.55-4.99-1.57-4.4-0.3
			c1.1-0.05,2.19,0.11,3.22,0.54c5.23,1.75,6.22,8.45,10.59,10.69c1.54,0.16,3.69-1.11,3.99-2.67c0.01-0.29-0.12-0.67,0.25-0.81
			c3.59,0.74,1.88,5.69-0.99,6.39c1.16,0.86,2.69-0.74,3.67-1.41c0.8,2.25-1.12,4.52-3.36,4.81c-0.19,0.18-0.32,0.3-0.45,0.42
			c2.25,0.96,3.98-2.36,1.5,2.26c-0.92,1.12-2.37,0.67-3.48,1.01c0.46,0.79,1.57,0.59,2.55,0.35c-0.2,1.18-1.45,2.46-2.6,2.75
			c-0.77,0.16-1.55-0.42-2.28-0.04c0.45,0.65,1.12,0.53,1.67,0.9c-1.07,1.55-2.8,0.87-4.26,0.55c2.13,3.61-2.07,6.5-1.41,4.11
			c0.1-0.22-0.07-0.45-0.12-0.66c-1.84-0.6,1.19-1.05-0.28-1.32c-1.31,0.49-1.77,2.06-3.14,2.51c0.12,0.92-0.24,1.82-0.95,2.42
			c-1.36,1.07-3.03-1.83-2,2.26c-1.28,0.58-2.68-0.94-2.75-2.17c-0.13-1.25,0.6-2.35,1.02-3.46c0.29-0.93,2.4-0.82,2.11-1.76
			c-1.11,0.14-2.05,0.87-3.22,0.81c-0.96,1.79-3.42,1.83-3.7-0.13c-0.94,0.22-1.39,1.15-1.65,1.98c-0.1,0.15-0.18,0.31-0.45,0.29
			c-1.33-1.57-0.38-3.79,1.09-4.92c1.96-0.61,1.82-1.61,4.11-0.8c1.5,0.28,2.67-0.77,4.02-1.37c3.28-0.75,6.63-2.94,7.1-6.48
			c0.19-1.18-0.76-1.75-1.82-1.42c-4.77,0.24-7.73-4.44-9.24-8.41c-0.62-1.58-2.18-2.91-3.94-2.72c-0.23,0.05-0.3,0.19-0.26,0.48
			c1.04,0.06,2.66,0.6,2.93,1.7c-1.24-0.26-2.56,0-3.78,0.29c-0.72,0.04-4.11,2.45-2.82,0.55c0.15-0.5,2.68-2.18,1.37-1.97
			c-3.4,2.64-3.02,4.33,1.22,2.15c2.98-0.59,5.87-1.32,1.77,1.67c-2.46,2.22-3.86,10.16,1.41,6.46c0.3,0.49,0.05,1.2-0.03,1.75
			c-0.01,1.93-2.08,1.96-3.13,2.59c0.62,0.66,1.58,0.19,2.26-0.11c0.18,1.15-0.83,2.77-1.86,3.18c-0.9,0.77-2.79-0.8-3.01,0.32
			c0.34,0.9,3.16,0.07,2.39,1.06c-1.87,1.98-2.86,1.89-5.25,1.22c0.01,1.07,1.49,1.03,2.16,1.38c-0.52,1.18-2.46,1.74-3.63,1.61
			c-0.22-0.08-0.47-0.13-0.63-0.41c-0.86-1.66-2.94-1.45-4.43-2c0.12,0.87,1.17,1.1,1.94,1.15c2.53,0.25,3.27,5.06,0.67,5.69
			c-1.18-0.5,0.41-1.49-0.35-2.42c-0.91,0.02-1.12,0.94-2.06,0.67c-0.85-0.25-0.85-1.29-1.61-1.51c-2.36,2.21-1.05,1.59-1.91,3.81
			c-0.92,1.67-4.16-0.46-1.13,3.56c-0.92,1.03-2.57-0.3-3.14-1.19c-0.78-1.33-0.75-2.85-0.76-4.37c0.89-1.14,2.74-1.52,3.04-3.08
			c-0.99,0.75-1.72,1.33-3.06,1.24c-0.37,0.46-0.81,1.2-1.57,1.06c-1.28,0.29-1.45-1.43-2.58-1.19c-1.1,0.32-1.26,1.44-1.55,2.36
			c-2.26-2.63,1.08-5.08,3.39-5.99c1.31-0.01,2.61,0.32,3.94,0.19c5.05-1.19,13.71-3.93,10.29-10.7c-0.68-4.54,3.21-8.33,6.63-10.46
			c-6.69,0.03-11.39,6.96-18.18,6.66c-0.12-2.11-0.38-4.58-0.96-0.68c-0.05,1.31,0.33,3.06,1.63,3.74
			c-0.76,1.54-2.36,2.78-4.06,2.07c-2.97-2.05-1.75,0.23-0.03,1.15c-1.85,1.67-3.94,1.63-5.74-0.09c-0.98,0.02,0.61,1.84,1.2,2.06
			c-1.04,0.88-3.51,1.4-4.42,0.04c-0.2-0.39-0.61-0.86-0.92-0.36c-0.07,0.72,0.67,1.2,0.97,1.8c-3.09,0.67-2.75-0.48-4.52-1.63
			c0.15,0.71-0.51,0.99-0.6,1.58c0.06,1.18-1.47,2.85-2.76,1.9c0.43-0.62,0.87-1.34,0.35-2.07c-1.43-0.91-0.63-1.27,0.66-1.31
			c-0.99-1.48-3.13,0.88-4.51,0.8c-0.7,0.52-0.91,1.52-1.94,1.86c-0.54,0.1-1.01-0.15-1.42-0.49c-0.77,0.62-0.97,1.63-0.45,2.54
			c-2.07,0.01-2.58-2.52-1.93-4.11c0.66-1.28,0.84-3.05,2.77-2.39c0.56-0.05,1.14-0.31,1.57-0.72c-0.08-0.41-0.29-0.57-0.65-0.35
			c-0.94,0.61-1.5,0.1-2.31-0.19c-0.85,1.05-2.28,0.4-2.98-0.43c0.27-2.37-1.91-0.48-2.63,0.43c-1.1-1.62,0.69-3.88,2.36-4.22
			c0.94-0.19,2.13-0.04,3.03-0.11c1.41,0.89,2.57,1.79,4.32,1.57c4.24,0.82,10.08,0.45,13.37-2.68c0.09-0.11,0.22-0.28,0.13-0.43
			c-0.32-1.13-0.24-2.34-0.03-3.51c-1.6,0.9,0.02,2.95-1.17,3.88c-3.05-1.24-3.06-5.32-2.45-8.05c0.05-5.83,6.06-7.19,9.99-9.79
			c1.21-1.14,0.73-2.78,1.49-4.13c-1.95,1.12-0.33,3.65-3.58,4.75c-1.07,0.84-8.58,1.27-7.39-0.86c-0.24-0.98,0.79-2.44-0.66-2.35
			c-2.33-0.48-5.31-1.11-6.4-3.48c-0.78-1.47,1.19-3.43,2.32-1.79c-0.01,0.51-0.06,1.05,0.34,1.4c1.53,1.42,3.56,2.17,5.58,2.59
			c1.05,0.02,6.13,1.33,6.02-0.21c-0.37-0.45-1.3-2.11-1.78-1.39c-0.61,0.05-0.61,0.05-0.95-0.08c-0.01-0.27-0.2-0.5-0.46-0.28
			c-0.59,0.35-1-0.28-1.1-0.81C465.06,119.51,464.53,119.73,464.24,119.55c1.63-0.43,0.8-1.89-0.43-1.32
			C463.83,118.77,463.91,119.1,464.24,119.55z M464.79,124.57c-0.11-0.43,0.35-0.4,0.62-0.38c0.31,0.57,0.53,1.04,0.93,0.17
			c1.08-0.57,0.87,1.59,1.81,0.66c0.34-0.24,0.77-0.48,0.79-1c-1.41-0.35-3.22-0.31-4.68-0.53c-0.28,0.41-0.2,1.83,0.44,1.18
			c-0.42,0.85-0.01,1.2,0.86,1.09C465.85,125.34,465.46,124.15,464.79,124.57z M455.62,118.61c-0.67,2.37,5.95,5.49,6.95,3.56
			c-1.97-0.75-5.45-1.52-5.55-4.06C456.38,117.65,456.02,118.01,455.62,118.61z M476.24,164.73c0.29,0.44-0.16,1.13-0.12,1.64
			c-0.27,1.42,1.33,3.35,2.71,2.87c-0.9-1-1.54-2.03-0.63-3.28C478.39,164.96,476.96,163.89,476.24,164.73z M503.96,166.94
			c-0.67-1.29,0.23-2.31,0.76-3.41C502.93,159.71,500.47,166.6,503.96,166.94z M495.86,159.41c-0.25,0.85-0.49,1.95,0.14,2.69
			c0.7-2.59,2.56-1.58,3.02-3.01C499.27,156.74,496.5,158.26,495.86,159.41z M442.1,148.38c1.06-0.08,1.42-1.65,2.72-1.43
			c0.45-0.02,0.95,0,1.39,0c0.19-0.57,0.61-1.63-0.33-1.67C443.94,145.06,442.12,146.33,442.1,148.38z M472.35,161.52
			c2.44-3.75-4.55-1.42-2.67,1.95C470.15,162.28,471.03,161.39,472.35,161.52z M447.5,156.11c-0.29-1.61,1.53-2.11,1.41-3.45
			C447.21,149.96,445.38,155.57,447.5,156.11z M486.18,160.34c-0.9,0.27-0.96,1.11-0.52,1.78c0.46,0.2,0.46,0.2,0.84,0.85
			c0.05,0.7-0.05,1.33-0.2,2.04C488.36,164.6,487.76,161.07,486.18,160.34z M469.81,114.63c-0.2-0.06-0.28,0.05-0.38,0.13
			c-0.6,0.38-1.16-0.47-0.73-1.04c0.29,0.03,0.42,0.32,0.75,0.18c0.16-0.29,0.23-0.66-0.19-0.79c-0.62-0.34-1.27,0.04-1.87,0.33
			c-1.44,0.19-1.08-1.08-0.17-1.67c-1.86,0.18-1.6,2.26,0.2,2.16C467.87,114.93,470.75,117.02,469.81,114.63z M477.86,114.53
			c-1.08,0.4-1.17,1.86-2.42,1.99c1.61,1.34,2.23-2.7,3.59-0.81C479.42,115.08,478.44,114.35,477.86,114.53z M463.13,123.71
			c-0.36,0.86-0.55,2.42,0.78,2c-0.08-0.88-0.09-1.65,0-2.51C463.53,123.13,463.39,123.51,463.13,123.71z M458.01,153.66
			c-1.47-0.57-1.42,0.75-1.7,1.75C457.34,155.55,457.84,154.55,458.01,153.66z M463.24,117.74c-1.42-1.55-1.6,0.83-1.07,1.9
			C462.66,119.1,462.83,118.33,463.24,117.74z M462.78,113.23c-0.23,0.38-0.85,0.17-1.07,0.5c0.79,0.54,1.39-0.1,1.71-0.77
			c0.5-0.17,1.62,0.31,1.56-0.45C464.15,112.53,462.9,112.02,462.78,113.23z M511.1,160.81c0.32,0.42,0.35,0.87,0.36,1.31
			c0.88-0.15,1.28-1.54,0.71-2.09C511.81,160.29,511.47,160.54,511.1,160.81z M461.46,119.26c0.1-0.91,0.58-1.79,0-2.53
			C460.71,117.41,461.03,118.47,461.46,119.26z M463.99,122.42c-0.71-0.17-1.37-0.39-1.61,0.51
			C463.03,123.23,463.78,123.14,463.99,122.42z"/>
		<path class="st4" d="M449.34,133.06c-1.13-0.96-1.55-2.62-1.51-4.06c0.09-1.04,0.65-2.03,0.59-3.11c-0.1-0.91-0.48-1.68,0.32-2.4
			c-2.39-0.08-0.01,2.85-1.5,3.86c-0.98,1.83-4.52,1.93-4.54-0.52c0.47,0.04,0.84,0.4,1.33,0.28c0.39-0.12,1.51-0.89,0.55-1.02
			c-0.89-0.34-1.3-1.57-0.79-2.36c0.15-0.2,0.61-0.37,0.25-0.65c-0.69,0.13-1.49,0.11-2.16-0.21c-0.49-0.21-0.81,0.32-1.24,0.51
			c-0.73,0.04-1.69,0.15-2.18-0.58c-0.54-2.99-2.41,0.82-2.81-0.11c-0.85-2.78,2.5-4.37,4.74-4.63c1.2,1.48,2.72,1.79,4.57,1.58
			c-1.57-1.44-3.03,0.47-3.56-2.72c-4.96-0.67,1.27-4.57-4.7-4.15c0.23-1.14,1.98-1.53,3.01-1.6c1.57,0.31,2.94,1.09,4.35,1.78
			c0.06,1.02,0.44,1.99,0.61,2.96c4.3,3.9,12.25,15.82,18.28,14.36c-3.2,2.99-1.25,8.29-3.47,9.27c-0.5,0.22-0.37,0.71-0.81,1.01
			c-0.99-0.18-2.3-0.29-2.7-1.38c-0.53-1.03,0.76-2.18,0.02-3.23c-0.63-0.67-0.43,0.58-0.46,0.95c-0.43,0.66-0.55,1.33-0.56,2.07
			c-4.32-2.67-0.56-2.89-1.99-5.63c-0.7,0.12,0,0.85-0.32,1.27c-0.26,0.63-0.79,1.1-0.71,1.83c-0.62-0.65-1.2-1.26-1.56-2.12
			c-0.07-1.34,0.81-2.74,0.26-4.11c-0.11,0.06-0.3,0.04-0.36,0.16C450.35,131.41,449.67,132.12,449.34,133.06z M441.91,112.49
			c-1.29-0.85-3.65-1.51-4.61-0.06c1.14-0.09,2.24,0.16,3.02,0.97C440.79,114.5,442.61,113.43,441.91,112.49z M438.59,121.11
			c2.26-3.69-3.79-1.26-2.65,1.29C436.65,121.61,437.46,121.07,438.59,121.11z M443.21,127.44c2.46,3.19,5.35-2.58,2.36-0.94
			C444.97,127.42,444.3,127.49,443.21,127.44z"/>
		<path class="st4" d="M448.98,110.7c1.41,0.59,1.98,2.69,1.22,3.85c1.68,3.21-1.75,2.14-1.86,4.35c-0.8-0.45-1.18-1.93-2.28-2.33
			c0-0.13,0-0.24,0-0.35c0.62-1.01-0.86-1.71,0.65-2.93c0.62-0.57,1.6,0.57,1.8-0.46c-0.1-0.65-0.21-1.22-0.66-1.72
			C447,110.46,448.49,110.54,448.98,110.7z M448.26,110.99c0.62,0.58,0.58,1.27,0.75,2c-0.41,1.07-0.93,1.64,0.65,2.03
			C450.57,113.69,450.12,111.02,448.26,110.99z"/>
		<path class="st4" d="M474.95,155.57c0.27-0.43,0.66-0.67,1.01-1c-0.58-0.75-1.79-0.74-2.65-0.52c0.35-1.86,4.03-2.55,5.01-0.73
			c0.95,0.14,1.95,0.58,1.76,1.95c-0.44,0.59-0.52,0.57-0.49,1.7C478.02,158.15,474.84,158.08,474.95,155.57z M478.2,153.76
			c-0.85-1.09-3.71-1.51-3.99-0.11c0.78,0.05,1.81-0.21,2.38,0.51C476.8,155.03,478.41,154.64,478.2,153.76z"/>
		<path class="st4" d="M453.94,145.42c0,0.21,0,0.4,0,0.64c-1.02-0.28-2.05-0.5-3.17-0.4c-3.76-2.38,3-3.41-1.95-4.48
			c1.32-1.67,4.5-0.71,4.87,1.3C455.06,142.86,455.16,144.69,453.94,145.42z M453.21,142.53c-0.22-1.45-2.8-2.69-3.69-1.42
			c0.96,0.01,2.09,0.62,2.09,1.7C452.06,143.36,453.25,143.42,453.21,142.53z"/>
		<path class="st4" d="M505.43,153.4c-0.59,0.58,0.34,0.82,0,1.38c-0.36,0.16-0.77,0.13-1.12,0.4c-1.78,1.27-1.07,1.18-2.97,0.23
			c-1.53-0.63-0.3-2.01-0.27-3.03c-0.48-0.74-1.2-0.48-1.84-0.74c0.08-0.8,1.72-1.41,2.59-1.25c0.71,0.04,1.61,0.51,1.83,1.18
			C504.23,152.23,505.63,152.23,505.43,153.4z M503.61,152.81c0.43-0.58-0.47-1.13-0.85-1.51c-0.79-0.66-1.95-0.7-2.74-0.05
			c0.33,0.31,0.67,0.16,1.11,0.39C501.71,152.41,502.54,153.86,503.61,152.81z"/>
	</g>
	<g class="st1">
		<text transform="matrix(1 0 0 1 638.457 63.6719)"><tspan x="0" y="0" class="st2 st5 st6">TENNIS-ABTEILUNG</tspan><tspan x="0" y="25.38" class="st2 st5 st6">GILDE GRÜN-WEISS</tspan><tspan x="0" y="50.75" class="st2 st5 st6">SCHIESS-ABTEILUNG</tspan></text>
	</g>
	<g class="st1">
		<text transform="matrix(1 0 0 1 257.9082 63.5391)"><tspan x="0" y="0" class="st2 st5 st6">FRATERNITAS</tspan><tspan x="-207.63" y="25.38" class="st2 st5 st6">ST. EWALDUS SCHÜTZENGILDE</tspan><tspan x="-36.48" y="50.75" class="st2 st5 st6">DÜREN 1560 E.V.</tspan></text>
	</g>
</g>
<g id="designTraced">
	<g>
		<path class="st7" d="M629.7,75.31v3.17h-91.9c0.06-1.05,0.13-2.13,0.19-3.17H629.7z"/>
	</g>
	<g>
		<rect x="556.74" y="5.52" class="st7" width="3.17" height="142.75"/>
	</g>
	<g>
		<path class="st7" d="M623.32,75.31c-0.82-35.12-29.69-63.44-65-63.44c-10.79,0-20.97,2.63-29.94,7.33v3.62
			c8.88-4.95,19.1-7.77,29.94-7.77c33.56,0,61,26.9,61.82,60.27c0.03,0.51,0.03,1.05,0.03,1.59c0,0.54,0,1.08-0.03,1.59
			c-0.82,33.37-28.26,60.27-61.82,60.27c-8.44,0-16.5-1.71-23.82-4.79c-0.25,1.05-0.54,2.09-0.86,3.11
			c7.61,3.11,15.96,4.85,24.68,4.85c35.31,0,64.17-28.33,65-63.44c0.03-0.51,0.03-1.05,0.03-1.59
			C623.36,76.35,623.36,75.81,623.32,75.31z"/>
	</g>
	<g>
		<path class="st7" d="M607.46,75.31c-0.82-26.39-22.55-47.58-49.14-47.58c-12.31,0-23.54,4.54-32.17,12.02
			c0.38,0.1,0.76,0.19,1.14,0.32c0.25,0.76,0.22,1.68,0.44,2.47c8.15-7.26,18.84-11.64,30.58-11.64c24.84,0,45.14,19.76,45.96,44.41
			c0.03,0.54,0.03,1.05,0.03,1.59c0,0.54,0,1.05-0.03,1.59c-0.82,24.65-21.13,44.41-45.96,44.41c-8.06,0-15.64-2.06-22.24-5.74
			c-0.06,1.17-0.13,2.32-0.19,3.49c6.72,3.46,14.34,5.42,22.43,5.42c26.58,0,48.31-21.19,49.14-47.58c0.03-0.54,0.03-1.05,0.03-1.59
			C607.49,76.35,607.49,75.85,607.46,75.31z"/>
	</g>
	<g>
		<path class="st7" d="M591.6,75.31c-0.82-17.64-15.45-31.72-33.28-31.72c-6.76,0-13.04,2.03-18.27,5.49
			c-0.57,1.46-0.86,3.05-0.98,4.63c5.23-4.35,11.96-6.95,19.25-6.95c16.08,0,29.28,12.66,30.1,28.55c0.03,0.54,0.03,1.05,0.03,1.59
			c0,0.54,0,1.05-0.03,1.59c-0.82,15.89-14.02,28.55-30.1,28.55c-8.34,0-15.89-3.39-21.38-8.88c-0.06,1.4-0.1,2.76-0.16,4.12
			c5.8,4.95,13.32,7.93,21.54,7.93c17.83,0,32.45-14.08,33.28-31.72c0.03-0.54,0.03-1.05,0.03-1.59
			C591.63,76.35,591.63,75.85,591.6,75.31z"/>
	</g>
	<circle class="st7" cx="558.33" cy="76.89" r="15.86"/>
	<g>
		<path class="st8" d="M480.08,175.23c-2.11-0.29-4.52-0.44-6.7-0.89c-21.48-3.58-39-21.33-42.88-42.72
			c-1.37-9.43-1.3-18.99-1.98-28.45c-0.73-11.47-1.38-22.95-2.1-34.42c-0.3-4.01-0.41-8.06-0.78-12.05
			c-0.01-3.56-0.12-7.33-2.57-10.16c4.7-0.13,9.43,0.15,14.15,0.06c0.65-1.88,0.57-3.95,1.16-5.89c0.45-0.05,0.89-0.1,1.35-0.15
			c0.31-4.52,0.02-9.24,0.1-13.83c-0.91-0.15-1.81-0.31-2.74-0.47c0-3.64,0-7.3,0-11.01c1.87-0.03,3.73,0.01,5.6,0.13
			c0,1.26,0,2.52,0,3.8c0.69,0,1.36,0,2.06,0c0-1.26,0-2.53,0-3.81c1.99,0,3.94,0,5.92,0c0,1.3,0,2.6,0,3.92c0.64,0,1.24,0,1.88,0
			c0.05-1.36-0.18-2.64-0.1-4.01c1.84,0,3.67,0,5.51,0c0,3.3,0,6.6,0,9.91c-0.64,0.41-1.34,0.79-2.05,1.09c0,1.27,0,2.49,0,3.74
			c0.54,0,1.08,0,1.63,0c0.09-1,0-2.12,0.03-3.14c0.16-0.16,0.31-0.31,0.48-0.47c1.52,0,3.07,0,4.65,0c0,1.18,0,2.34,0,3.52
			c0.59,0,1.16,0,1.75,0c0.08-1.12,0-2.35,0.03-3.52c1.74,0,3.46,0,5.22,0c0,1.16,0,2.34,0,3.52c0.54,0,1.04,0,1.59,0
			c-0.05-1.81,0.18-3.56,0.1-5.39c-0.82-0.23-1.64-0.46-2.46-0.7c0-3.41,0-6.77,0-10.15c1.76,0,3.51,0,5.3,0c0,1.32,0,2.66,0,4.01
			c0.67,0,1.31,0,1.98,0c0-1.33,0-2.67,0-4.02c1.89,0,3.74,0,5.61,0c0,1.33,0,2.65,0,4.01c0.63,0.04,1.25,0.01,1.88,0.02
			c0-1.35,0-2.67,0-4.02c1.82,0,3.61,0,5.43,0c0,1.33,0,2.65,0,4c0.63,0,1.25,0,1.88,0c0-1.37,0-2.73,0-4.1
			c1.89-0.12,3.87,0.24,5.6-0.15c0,3.34,0,6.63,0,9.96c-0.74,0.45-1.88,0.33-2.63,0.75c0,1.84,0,3.69,0,5.56c0.51,0,1.02,0,1.56,0
			c-0.05-1.11,0.07-2.2,0.12-3.31c1.69,0,3.38,0,5.1,0c0,1.09,0,2.2,0,3.32c0.61,0,1.18,0,1.78,0c0-1.1,0-2.21,0-3.33
			c1.79,0,3.54,0,5.33,0c0.06,1.1-0.12,2.13-0.11,3.22c0.57,0,1.12,0,1.68,0c0-1.2,0-2.39,0-3.58c-0.67-0.26-1.34-0.51-2.04-0.78
			c0-3.31,0-6.65,0-10c1.86,0,3.71,0,5.6,0c0.01,1.25-0.05,2.46,0.13,3.71c0.58,0,1.18,0,1.81,0c0.36-1.12,0.03-2.49,0.14-3.7
			c1.83,0,3.65,0,5.51,0c0,1.22,0,2.46,0,3.71c0.7,0,1.37,0,2.09,0c0.03-1.22-0.04-2.46-0.09-3.68c0.4-0.07,4.43-0.1,5.8-0.03
			c0,3.39,0,6.79,0,10.21c-0.8,0.27-1.64,0.49-2.44,0.8c0,4.49,0,8.94,0,13.39c0.44,0.12,0.87,0.24,1.36,0.38
			c0.28,0.85,0.22,1.91,0.5,2.76c0.03,1.27,0.49,2.47,0.49,3.74c0.05,0.05,0.09,0.09,0.15,0.15c4.28-0.05,8.62,0.11,12.87-0.1
			c0,0.03,0,0.07,0,0.1c-2.7,3.71-2.22,8.47-2.56,12.81c-0.23,5.2-0.54,10.42-0.77,15.64c-1.1,18.19-1.19,36.54-2.78,54.68
			c-2.84,21.87-21.08,40.42-42.65,44.41c-0.18,0.21-0.48-0.01-0.66,0.2c-0.54-0.05-1.05,0.27-1.59,0.2
			c-1.29,0.42-2.84,0.29-4.11,0.59C484.16,175.23,482.12,175.23,480.08,175.23z M428.3,49.57c0.94,19.4,1.81,38.68,2.69,58.12
			c34.51,0,69.01,0,103.49,0c0.93-19.34,1.37-38.75,2.02-58.12C500.41,49.57,464.37,49.57,428.3,49.57z M431.06,109.21
			c0.66,7.44,0.01,15.14,1.66,22.39c4.45,23.03,23.71,40.25,47.07,41.66c24.31,2.19,47.98-16.27,52.76-40.17
			c0.47-1.14,0.43-2.47,0.79-3.62c0.92-6.68,0.72-13.51,1.16-20.27C500.04,109.21,465.58,109.21,431.06,109.21z M482.56,31.03
			c4.51,1.12,7.94,5.32,8.28,9.94c11.32,0,22.61,0,33.91,0c-0.06-4.96,0.15-9.88,0.1-14.84c-4.82,0-9.61,0-14.38,0
			c-0.26,1.49-0.07,2.99-0.12,4.5c-1.17,0-2.3,0-3.46,0c0-1.22,0-2.42,0-3.62c-1.1,0-2.16,0-3.25,0c-0.04,1.21,0.11,2.41-0.13,3.61
			c-1.3,0-2.6,0-3.93,0c0-1.18,0-2.34,0-3.5c-1.03,0-2.04,0-3.06,0c0.14,1.22,0.1,2.39,0.11,3.61c-1.33,0-2.63,0-3.95,0
			c0-2.33,0-4.66,0-6.99c-6.69,0.12-13.4,0.11-20.11,0.1c0.06,2.42-0.14,4.77-0.1,7.17c-1.27,0-2.51,0-3.76,0c0-1.25,0-2.48,0-3.69
			c-0.05-0.05-0.09-0.09-0.13-0.13c-1.02,0.06-2.1-0.12-3.11,0.09c0,1.29,0.01,2.49,0,3.76c-1.28-0.05-2.46-0.15-3.75-0.1
			c0-1.2,0-2.37,0-3.52c-0.99,0-1.97,0-2.96,0c0,1.19,0,2.35,0,3.51c-1.31,0-2.6,0-3.93,0c0-1.61,0-3.21,0-4.81
			c-4.65,0-9.26,0-13.88,0c0,4.96,0,9.92,0,14.86c11.21,0,22.4,0,33.61,0C474.76,36.36,478.07,32.19,482.56,31.03z M480.96,34.49
			c3.24-1.21,6.22,2.15,7.05,5.01c0.55,2.41,0.13,4.94,0.25,7.41c12.82-0.02,25.64-0.15,38.47-0.1c-0.27-1.75-0.18-3.42-0.57-5.14
			c-11.95,0-23.94,0-35.9,0c-0.17-0.49-0.05-0.93-0.23-1.38c0-0.63-0.38-1.18-0.39-1.81c-1.13-3.07-4.02-6.3-7.43-6.49
			c-4.25,1.04-7.16,5.44-7.02,9.7c-11.87,0-23.75,0-35.61,0c-0.05,0.05-0.09,0.09-0.11,0.11c-0.08,1.69-0.51,3.31-0.5,4.98
			c12.67,0,25.31,0,37.94,0C477.08,42.36,476.3,36.89,480.96,34.49z M469.94,14.68c0,2.71,0,5.39,0,8.05c8.45,0,16.89,0,25.31,0
			c0-2.7,0-5.37,0-8.06c-1.08,0.07-2.25-0.13-3.26,0.07c0,1.24,0,2.5,0,3.76c-1.31,0-2.61,0-3.93,0c0-1.28,0-2.55,0-3.82
			c-1.1,0-2.16,0-3.26,0c0,1.28,0,2.56,0,3.82c-1.3,0-2.56,0-3.83,0c0-1.28,0-2.55,0-3.81c-1.24,0-2.44,0-3.65,0
			c0,1.28,0,2.54,0,3.83c-1.32-0.05-2.53,0.18-3.86,0.1c0-1.34,0-2.63,0-3.93C472.28,14.68,471.12,14.68,469.94,14.68z M508.49,24.9
			c6.33,0,12.62,0,18.91,0c0.07-1.55,0.04-8.24-0.03-8.64c-1.26,0-2.52,0-3.8,0c0,1.34,0,2.67,0,4c-1.36,0-2.69,0-4.04,0
			c0.03-1.34-0.14-2.58-0.1-3.92c-1.16,0.06-2.39-0.13-3.47,0.07c0,1.31,0,2.63,0,3.96c-1.38,0-2.74,0-4.13,0c0-1.38,0-2.75,0-4.15
			c-1.15,0.07-2.2,0.15-3.34,0.12C508.49,19.21,508.49,22.05,508.49,24.9z M453.75,20.29c-1.48,0.04-2.8-0.07-4.24-0.1
			c0.07-1.25-0.15-2.47,0.1-3.7c-0.04-0.04-0.09-0.08-0.17-0.14c-1.23,0.08-2.42,0.12-3.69,0.1c0,1.3,0,2.57,0,3.83
			c-1.36,0-2.69,0-4.05,0c0-1.25,0-2.49,0-3.72c-1.13,0-2.23,0-3.32,0c0,2.8,0,5.58,0,8.35c6.15,0,12.27,0,18.4,0
			c0-2.83,0-5.64,0-8.46c-1.04-0.01-2.02,0.07-3.04-0.1C453.75,17.67,453.75,18.96,453.75,20.29z M487.47,39.11
			c-3.28,0.03-6.48-0.16-9.75-0.1c0,0.39,0,0.71,0.01,1.08c3.25,0.1,6.48,0.11,9.74,0.1C487.47,39.82,487.47,39.48,487.47,39.11z
			 M483.43,38.61c0-1.23,0-2.41,0-3.59c-0.12-0.12-0.23-0.23-0.34-0.35c-2.03-0.21-0.83,2.7-1.13,3.93
			C482.46,38.61,482.93,38.61,483.43,38.61z M480.25,35.76c-0.41,0.35-0.82,0.7-1.24,1.06c0,0.56,0,1.17,0,1.78
			c0.46,0,0.91,0,1.36,0C480.45,37.63,480.21,36.74,480.25,35.76z M485.03,35.97c0,0.92,0,1.72,0,2.56
			c0.45,0.04,0.89,0.08,1.35,0.12c0-0.49,0-0.93,0-1.38C485.95,36.88,485.56,36.42,485.03,35.97z"/>
		<path class="st8" d="M507.16,60.31c-7,2.72-8.04-7.22-1.02-8.08c4.97-0.34,9.91,0.51,14.8,1.1c3.86,0.5,7.74,0.64,11.64,0.45
			c0.95,2.31-1.67,4.2-3.7,4.55c-5.9,0.92-11.77-0.5-17.56-1.18c1.33,2.12,3.69,1.78,5.76,2.38c2.83,0.58,5.66,1.11,8.51,1.48
			c1.38,0.17,2.74,0.32,4.12,0.27c1.13,0.31,3.85-0.92,3.38,1.06c-1.47,6.4-15.23,1.77-19.67,0.73c0.19,0.55,0,1.5,0.74,1.56
			c1.92,0.59,3.82,1.25,5.73,1.9c4.01,1.63,8.78,2.41,12.68,2.33c0.62,1.43-0.97,2.88-2.09,3.56c-1.49,0.61-3.26,0.45-4.83,0.32
			c-4.34-0.7-8.66-2.48-12.78-4.19c-1.19,1.86,16.95,9.09,19.33,9.22c1.38,1.21-1.1,3.19-2.4,3.33c-7.38,0.4-14.15-4.75-20.1-8.67
			c-0.25,0.2-0.5,0.41-0.75,0.61c6.44,6.63,14.84,11.64,22.9,15.83c-2.81,6.23-14.37-2.92-17.75-5.55
			c-2.44-1.08-8.89-9.64-10.31-7.8c5.81,7.17,12.45,13.7,19.54,19.66c0.7,1.12,4.58,1.62,3.07,2.94c-5.41,3.68-13.87-6.61-17.83-9.9
			c-3.35-3.76-6.74-7.57-9.8-11.6c-2.67-0.24-0.82,1.6,0.06,2.86c2.98,4.02,5.79,8.36,9.69,11.53c0.74,0.12,0.95,0.75,0.56,1.5
			c-4.35,2.89-9.78-4.49-12.45-7.42c-2.46-1.96-3.44-6.86-6.41-7.34C493,84.2,500.96,96.95,509.09,95c1.55-0.16,3.43-0.33,4.51,1.04
			c0.63,0.84,1.15,2.22,0.03,2.9c-0.71-0.13-0.27-1.53-1.46-1.69c-1.48,3.5-3.31-0.55-5.36,0.53c1.9,1.96,5.4,1.61,6.92,4.09
			c0.9,1.31,0.92,4.09-1.22,3.96c0.06-1.34,1.05-1.57-0.54-2.87c-2.16,3.15-3.62-2.52-5.85-2.35c0.36,1.97,1.81,5.57-1.17,6.11
			c-0.63,0.11-1.28,0.06-1.75-0.5c0.99,0.11,1.72-1.1,1.29-1.95c-0.63,0.12-1.48-0.36-1.53-1.05c-0.12-1.44,0.94-2.84-0.2-4.07
			c-1.79-3.1-4.82,2.26-5.85-1.44c-0.61,0.29-0.79,0.7-0.95,1.28c0.19,0.23,0.06,0.53,0.19,0.82c-1.91,0.07-2-2.68-0.54-3.55
			c1.25-1.03,2.84-0.87,4.35-0.87c-1.71-1.49-3.39-3.33-5.69-3.75c-0.32,1.21-0.18,2.9-1.78,3.1c-0.45-5.13-7.98-7.64-5.79-13.55
			c-1.58,1.38-1.04,3.66-0.42,5.39c-0.39,7.81,5.04,14.98,11.16,19.13c-5.32,2.13-10.21-3.3-12.33-7.75
			c0.01,2.92-0.35,6.09-2.32,8.39c-1.64-2.27-2-5.12-2.39-7.8c-2.01,4.47-6.29,8-11.34,7.59c5.94-4.63,11.09-11.57,10.64-19.48
			c1.12-1.45,1.51-4.55-0.33-5.56c2.95,6.02-6.01,8.74-6.19,14.18c-1.88-0.18-1.62-2.51-1.48-3.87c-1.91,1.09-3.74,2.28-5.07,4
			c0.5,1.05,2.11,0.24,3.04,0.39c2.58-0.27,3.14,4.17,0.57,4.08c0.42-0.82-0.25-2.33-1.11-1.06c-0.75,0.63-1.86,0.45-2.6,0
			c-1.5-1.13-3.12,0.55-3.2,2.1c-0.14,0.72,0.12,1.47-0.02,2.23c-0.04,0.59-0.46,1.45-1.21,1.3c-0.69,0.72,0.31,1.77,1.12,1.6
			c-0.33,1.59-2.58,1.27-3.27,0.02c-1.22-2,0.84-4.08,1.09-6.05c-1.84,1.2-3.38,2.7-4.86,4.23c-1.1,0.47-1.71-1.42-2.53-0.33
			c-0.4,0.76-0.14,1.34,0.14,2.04c-0.66,0.77-1.49-0.4-1.7-1.04c-1.51-4.54,5.52-3.83,6.79-6.74c-1.28-0.39-2.1,1.36-3.35,0.79
			c-0.56-0.15-0.93-0.69-1.01-1.31c-1.06-0.42-1.5,0.98-1.45,1.83c-2.66-1.81,0.69-4.56,2.92-4.19c2.6,0.41,5.35,0.62,7.59-1.09
			c2.06-1.69,14.65-15.49,11.3-16.6c-3.33,3.85-11.96,18.67-17.66,14.95c4.35-4.71,8.66-9.82,12.02-15.38
			c-1.65-0.54-2.41,0.32-3.25,1.6c-1.05,1.24-2.17,2.42-3.22,3.65c-4.61,5.12-9.3,10.28-14.92,14.35c-1.74,1.07-3.57,2.1-5.64,2.16
			c-1.19-0.06-3.54-1.21-1.47-2.2c8.12-5.98,15.16-13.38,21.83-20.89c-2.94-1.13-4.86,3.66-7.25,5.11c-2.25,2.1-4.69,4-7.12,5.88
			c-2.84,1.9-11.7,7.81-13.45,2.66c8.14-4.1,15.52-9.67,22.39-15.69c-1.37-2.12-5.48,2.89-7.5,3.49c-4.2,2.03-8.99,5.61-13.8,4.26
			c-1.1-0.19-3.43-2.41-1.39-2.72c6.85-1.96,13.16-5.72,19.42-9.09c-0.63-2.4-2.72,0.32-4.37,0.58c-3.95,1.29-7.91,3.33-12.13,3.08
			c-1.62,0.16-5.06-2.01-3.36-3.62c1.25-0.15,2.6-0.12,3.77-0.5c4.97-0.8,9.7-2.87,14.49-4.34c0.1-0.45-0.19-0.88-0.05-1.33
			c-4.79,0.61-9.81,2.89-14.68,2.22c-1.94-0.2-5-1.68-4.32-4.05c1.24-0.56,2.93,0.32,4.31-0.09c2.52-0.14,4.98-0.56,7.48-1.01
			c3.45-0.94,7.56-0.86,10.2-3.49c-6.28,0.64-13.55,3.69-19.51,0.21c-0.9-0.64-2.93-2.27-1.47-3.19c5.57,0.2,10.97-0.6,16.47-1.18
			c4.79-0.25,14.57-3.8,14.42,4.16c-0.29,2.1-2.1,3.79-4.22,3.8c-0.33,0.11-0.82-0.32-1.14-0.26c-0.97,0.35-1.37,1.6-1.53,2.53
			c-0.29,4.53,5.54,6.21,9.03,4.54c2.33-1.31,5.84-1.82,7.2,1.01c0.18,0.36,0.08,0.9,0.69,0.76c0.19-1.28,1.5-2.11,2.68-2.38
			c-0.02-1.89,1.18-3.81,3.03-4.42c-1.7-0.99-3.59,0.22-5.34-0.34c0.75-0.76,1.88-0.94,2.86-1.37c-2.45-1.16-5.96-0.46-8.13-2.68
			c-0.01-1,2.09,0.67,2.82,0.56c2.45,0.22,4.86,0.34,7.26,0.69c-1.05-1.77-4.65-5.05-5.97-1.95c-3.66-1.91,0.7-5.54,3.28-5.74
			c3.53-0.67,7.22-0.35,10.46,1.06c-0.42,0.77-1.45,0.44-2.18,0.73c3.05,3.81,2.3,8.82,1.06,13.19c1.9-0.27,3.47,1.4,3.82,3.17
			c3.17-5.02,6.39-1.86,10.65-1.21C505.6,69.07,510.09,64.11,507.16,60.31z M479.09,54.78c-0.43-0.05-0.49-0.7-0.31-1.1
			c-0.56-0.33-1.63,0.3-1.87-0.41c0.19-0.52,1.05-0.48,0.98-1.06c-0.5,0.03-0.91,0.56-1.38,0.7c-0.82,0.2-1.65,0.53-2.29,1.15
			c-0.78,0.71-1.2,1.82-0.46,2.73c0.07,0.1,0.21,0.53,0.39,0.27c1.22-3.73,8.57,2.1,6.77,3.92c-1.35,0.32-2.71,0.51-4.05,0.91
			c-0.1,0.14-0.17,0.25-0.26,0.38c0.91,0.04,1.7-0.27,2.61-0.2c0.71-0.38,2.85,0.51,2.54-0.8c-0.22-2-0.34-4.83-1.99-6.1
			c1.14,0.36,1.89-1.81,0.59-1.42c0.1,0.5-0.18,0.82-0.65,0.71c-0.35-0.28,0.12-0.59-0.07-0.86
			C478.92,53.45,478.85,54.32,479.09,54.78z M453.26,105.99c0.14-0.33,0.08-0.47-0.06-0.75c-0.58-1.3,0.87-2.19,1.51-3.14
			c-0.31,1.98,1.79,2.32,2.35,0.47c1.67-1.43,3.47-2.83,5.04-4.4c-0.39,2.18-1.71,4.24-2.15,6.43c0.04,1.18,0.96,2.23,2.16,2.14
			c1.13-0.46-0.62-0.73-0.85-1.33c-0.68-3.46,1.48,0.09,1.55-2.67c-0.41-1.84,0.43-5.3,2.78-5.04c1.01,0.69,4.37,1.71,3.28-0.55
			c1.48-0.08,1.93,1.13,1.86,2.37c0.87-0.68,0.93-1.64,0.47-2.5c-1.45-1.85-3.89,0.44-5.66-0.83c0.16-2.82,10.29-5.9,4.91-7.8
			c-3.5,2.64-6.32,6.44-9.72,9.33c-1.21,0.92-2.4,1.96-3.68,2.77C454.4,101.16,450.19,102.82,453.26,105.99z M500.69,95.65
			c-1.29,0.71-2.8-0.38-4.08,0.43c-1.39,0.24-2.29,2.22-0.98,3.15c0.17-1.33,0.76-2.26,2.35-2.22c-1.17,0.44-0.17,2.04,0.8,1.23
			c2.1-2.08,5.55,0.56,4.89,3.16c-0.97,1.14,0.55,3.36,1.44,1.64c0.43,0.23,0.15,0.48,0.02,0.92c0.16,1.07-0.17,1.93-1.14,2.37
			c1.36,0.5,2.43-0.81,2.43-2.08c-0.4-1.38-0.69-2.82-1.21-4.18c-0.11-0.45-0.92-0.87-0.52-1.34c1.06,1.2,2.97,1.45,3.7,2.85
			c0.35,1.51,3.43,2.92,3.02,0.46c1.12,0.25,1.66,1.08,1.8,2.15c0.23,0.41-0.26,0.78-0.14,1.18c2.81-1.97-0.96-5.09-3.2-5.53
			c-3.01-1.1-5.57-3.2-7.88-5.37c-2.19-0.86-5.88-8.38-7.79-4.92C493.99,91.1,500.1,93.69,500.69,95.65z M511.15,96.48
			c1.05-0.18,1.95,0.32,2.18,1.37c0.23,1.26,0.92-0.39,0.43-0.86c-0.88-2.29-3.5-1.75-5.37-1.42c-1.78,0.35-3.48-0.69-5.19-0.61
			c1.2,1.94,3.32,2.12,5.38,2.24c0.8,0.89,2.32,1.49,2.93,0.11C511.38,96.97,511.04,96.93,511.15,96.48z M452.72,98.66
			c0.4-1.2,1.33-1.85,2.59-1.9c-1.08,1.92,1.17,1.99,2.33,1c1.74-0.33,3.63-0.34,4.58-2.15c-1.54,0.01-3.03,0.62-4.58,0.27
			C455.82,95.47,451.55,95.93,452.72,98.66z M477.45,59.5c-2.15,0.07-4.13-0.41-6.15-0.73c1.63,1.34,4.05,1.14,5.99,1.44
			C477.35,59.98,477.39,59.77,477.45,59.5z"/>
		<path class="st8" d="M464.24,119.55c-0.51-0.33-0.63-0.79-0.65-1.31c-0.92,0.29-0.85,1.26-1.31,1.89
			c-0.18-0.18-0.34-0.34-0.5-0.51c-1.26,0.1-0.91-2.54-0.73-3.36c-0.83-0.78-0.7-3.1,0.7-3.14c0.45,0.07,0.64-0.08,0.56-0.56
			c-0.56-0.52-1.53,0.73-1.96-0.15c0.1-1.4,2.01-0.68,2.98-0.98c4.51-0.89,9.36,0.69,13.7-0.78c0.78,0.41,0.05,1.38-0.59,1.62
			c-0.28,0.14-1.2,0.05-0.76,0.55c0.8,0.08,1.48-0.27,2.17-0.64c0.64,0.74-0.03,0.88-0.69,1.04c-0.63,0.23-0.97,0.79-1.38,1.4
			c-0.31,0.17-0.66,0.08-0.89,0.4c0.25,0.11,0.42,0.28,0.71,0.08c0.33-0.04,0.69-0.01,0.88-0.38c3.79-4.28,5.07,6.66,0.44,4.96
			c-1.49-0.56,0.97,2.03,3.04-0.22c0.23,0.63,0.47,1.29,0.4,2.06c-1.7-0.91-3.19-0.39-0.64,0.68c1.38,0.85,1.02,2.4,1.05,3.82
			c-0.51-0.79-1.55-1.61-2.47-1.12c2.06,1.2,2.88,3.58,1.29,5.54c0.12-0.98-0.69-2.2-1.76-2.14c1.25,1.45,1.65,3.79-0.14,5.22
			c-0.36-0.64-0.42-1.85-1.34-1.84c0.69,1.6,1,3.56-1.09,4.45c0.08-0.69,0.53-1.6-0.29-2.02c0.01,1.25-0.47,2.39-1.39,3.25
			c2.87,0.36,5.32-3.84,7.03-6.07c1.72-0.56,3.93-0.38,5.81-0.61c7.15-0.94,14.48-0.32,21.69-0.09c5.36-0.25,15.24,1.69,18.52-3.33
			c0.94-1.83-0.24-3.74-2.06-4.32c-6.28-1.87-13.29-0.34-19.73-1.54c-4.63-0.82-7.69-4.77-12.19-5.81c-4.1-0.54-4.64,3.22-1.46,2.66
			c2.61-0.3,6.05,0.52,7,3.36c0.44,1.73-2.01-0.33-2.98,0.18c-0.48-0.09-0.89,0.17-1.35,0.2c-0.81-0.04-3.25-0.3-0.87,0.44
			c2.83,0.28,6.25,0.23,8.34,2.49c0.7,0.78,1.98,3.21,0.08,2.97c-0.58-0.44-1.18-0.78-1.93-0.78c-2.94-0.45-6,0.77-8.83-0.43
			c-7.44-1.79-7.55-12.97,0.35-13.95c6.64-0.84,10.69,6.78,17.23,6.32c1.05-0.21-1.41-1.16-1.77-1.6c-1.68-1.95-3.72-5.04-6.68-4.4
			c1.07-1.27,3.4-0.91,4.92-0.74c4.65,0.08,5.63,7.23,10.12,6.88c-3.98-3.39-0.9-4.84-6.56-6.81c9.16-1.9,6.4,5.31,11.8,7.14
			c1.53-0.15-0.51-1.02-0.67-1.64c-0.81-1.96-1.51-4.23-3.73-5c0.44-0.22,0.86-0.03,1.27-0.23c6.47,0.41,4.48,4.12,7.51,7.08
			c6.99,2.55,6.66,9.89,0.14,12.75c-1.93,0.65-3.87,0.88-5.87,1.06c-4.02-0.08-8.52,1.31-11.99-1.19c-0.63-0.55-4.99-1.57-4.4-0.3
			c1.1-0.05,2.19,0.11,3.22,0.54c5.23,1.75,6.22,8.45,10.59,10.69c1.54,0.16,3.69-1.11,3.99-2.67c0.01-0.29-0.12-0.67,0.25-0.81
			c3.59,0.74,1.88,5.69-0.99,6.39c1.16,0.86,2.69-0.74,3.67-1.41c0.8,2.25-1.12,4.52-3.36,4.81c-0.19,0.18-0.32,0.3-0.45,0.42
			c2.25,0.96,3.98-2.36,1.5,2.26c-0.92,1.12-2.37,0.67-3.48,1.01c0.46,0.79,1.57,0.59,2.55,0.35c-0.2,1.18-1.45,2.46-2.6,2.75
			c-0.77,0.16-1.55-0.42-2.28-0.04c0.45,0.65,1.12,0.53,1.67,0.9c-1.07,1.55-2.8,0.87-4.26,0.55c2.13,3.61-2.07,6.5-1.41,4.11
			c0.1-0.22-0.07-0.45-0.12-0.66c-1.84-0.6,1.19-1.05-0.28-1.32c-1.31,0.49-1.77,2.06-3.14,2.51c0.12,0.92-0.24,1.82-0.95,2.42
			c-1.36,1.07-3.03-1.83-2,2.26c-1.28,0.58-2.68-0.94-2.75-2.17c-0.13-1.25,0.6-2.35,1.02-3.46c0.29-0.93,2.4-0.82,2.11-1.76
			c-1.11,0.14-2.05,0.87-3.22,0.81c-0.96,1.79-3.42,1.83-3.7-0.13c-0.94,0.22-1.39,1.15-1.65,1.98c-0.1,0.15-0.18,0.31-0.45,0.29
			c-1.33-1.57-0.38-3.79,1.09-4.92c1.96-0.61,1.82-1.61,4.11-0.8c1.5,0.28,2.67-0.77,4.02-1.37c3.28-0.75,6.63-2.94,7.1-6.48
			c0.19-1.18-0.76-1.75-1.82-1.42c-4.77,0.24-7.73-4.44-9.24-8.41c-0.62-1.58-2.18-2.91-3.94-2.72c-0.23,0.05-0.3,0.19-0.26,0.48
			c1.04,0.06,2.66,0.6,2.93,1.7c-1.24-0.26-2.56,0-3.78,0.29c-0.72,0.04-4.11,2.45-2.82,0.55c0.15-0.5,2.68-2.18,1.37-1.97
			c-3.4,2.64-3.02,4.33,1.22,2.15c2.98-0.59,5.87-1.32,1.77,1.67c-2.46,2.22-3.86,10.16,1.41,6.46c0.3,0.49,0.05,1.2-0.03,1.75
			c-0.01,1.93-2.08,1.96-3.13,2.59c0.62,0.66,1.58,0.19,2.26-0.11c0.18,1.15-0.83,2.77-1.86,3.18c-0.9,0.77-2.79-0.8-3.01,0.32
			c0.34,0.9,3.16,0.07,2.39,1.06c-1.87,1.98-2.86,1.89-5.25,1.22c0.01,1.07,1.49,1.03,2.16,1.38c-0.52,1.18-2.46,1.74-3.63,1.61
			c-0.22-0.08-0.47-0.13-0.63-0.41c-0.86-1.66-2.94-1.45-4.43-2c0.12,0.87,1.17,1.1,1.94,1.15c2.53,0.25,3.27,5.06,0.67,5.69
			c-1.18-0.5,0.41-1.49-0.35-2.42c-0.91,0.02-1.12,0.94-2.06,0.67c-0.85-0.25-0.85-1.29-1.61-1.51c-2.36,2.21-1.05,1.59-1.91,3.81
			c-0.92,1.67-4.16-0.46-1.13,3.56c-0.92,1.03-2.57-0.3-3.14-1.19c-0.78-1.33-0.75-2.85-0.76-4.37c0.89-1.14,2.74-1.52,3.04-3.08
			c-0.99,0.75-1.72,1.33-3.06,1.24c-0.37,0.46-0.81,1.2-1.57,1.06c-1.28,0.29-1.45-1.43-2.58-1.19c-1.1,0.32-1.26,1.44-1.55,2.36
			c-2.26-2.63,1.08-5.08,3.39-5.99c1.31-0.01,2.61,0.32,3.94,0.19c5.05-1.19,13.71-3.93,10.29-10.7c-0.68-4.54,3.21-8.33,6.63-10.46
			c-6.69,0.03-11.39,6.96-18.18,6.66c-0.12-2.11-0.38-4.58-0.96-0.68c-0.05,1.31,0.33,3.06,1.63,3.74
			c-0.76,1.54-2.36,2.78-4.06,2.07c-2.97-2.05-1.75,0.23-0.03,1.15c-1.85,1.67-3.94,1.63-5.74-0.09c-0.98,0.02,0.61,1.84,1.2,2.06
			c-1.04,0.88-3.51,1.4-4.42,0.04c-0.2-0.39-0.61-0.86-0.92-0.36c-0.07,0.72,0.67,1.2,0.97,1.8c-3.09,0.67-2.75-0.48-4.52-1.63
			c0.15,0.71-0.51,0.99-0.6,1.58c0.06,1.18-1.47,2.85-2.76,1.9c0.43-0.62,0.87-1.34,0.35-2.07c-1.43-0.91-0.63-1.27,0.66-1.31
			c-0.99-1.48-3.13,0.88-4.51,0.8c-0.7,0.52-0.91,1.52-1.94,1.86c-0.54,0.1-1.01-0.15-1.42-0.49c-0.77,0.62-0.97,1.63-0.45,2.54
			c-2.07,0.01-2.58-2.52-1.93-4.11c0.66-1.28,0.84-3.05,2.77-2.39c0.56-0.05,1.14-0.31,1.57-0.72c-0.08-0.41-0.29-0.57-0.65-0.35
			c-0.94,0.61-1.5,0.1-2.31-0.19c-0.85,1.05-2.28,0.4-2.98-0.43c0.27-2.37-1.91-0.48-2.63,0.43c-1.1-1.62,0.69-3.88,2.36-4.22
			c0.94-0.19,2.13-0.04,3.03-0.11c1.41,0.89,2.57,1.79,4.32,1.57c4.24,0.82,10.08,0.45,13.37-2.68c0.09-0.11,0.22-0.28,0.13-0.43
			c-0.32-1.13-0.24-2.34-0.03-3.51c-1.6,0.9,0.02,2.95-1.17,3.88c-3.05-1.24-3.06-5.32-2.45-8.05c0.05-5.83,6.06-7.19,9.99-9.79
			c1.21-1.14,0.73-2.78,1.49-4.13c-1.95,1.12-0.33,3.65-3.58,4.75c-1.07,0.84-8.58,1.27-7.39-0.86c-0.24-0.98,0.79-2.44-0.66-2.35
			c-2.33-0.48-5.31-1.11-6.4-3.48c-0.78-1.47,1.19-3.43,2.32-1.79c-0.01,0.51-0.06,1.05,0.34,1.4c1.53,1.42,3.56,2.17,5.58,2.59
			c1.05,0.02,6.13,1.33,6.02-0.21c-0.37-0.45-1.3-2.11-1.78-1.39c-0.61,0.05-0.61,0.05-0.95-0.08c-0.01-0.27-0.2-0.5-0.46-0.28
			c-0.59,0.35-1-0.28-1.1-0.81C465.06,119.51,464.53,119.73,464.24,119.55c1.63-0.43,0.8-1.89-0.43-1.32
			C463.83,118.77,463.91,119.1,464.24,119.55z M464.79,124.57c-0.11-0.43,0.35-0.4,0.62-0.38c0.31,0.57,0.53,1.04,0.93,0.17
			c1.08-0.57,0.87,1.59,1.81,0.66c0.34-0.24,0.77-0.48,0.79-1c-1.41-0.35-3.22-0.31-4.68-0.53c-0.28,0.41-0.2,1.83,0.44,1.18
			c-0.42,0.85-0.01,1.2,0.86,1.09C465.85,125.34,465.46,124.15,464.79,124.57z M455.62,118.61c-0.67,2.37,5.95,5.49,6.95,3.56
			c-1.97-0.75-5.45-1.52-5.55-4.06C456.38,117.65,456.02,118.01,455.62,118.61z M476.24,164.73c0.29,0.44-0.16,1.13-0.12,1.64
			c-0.27,1.42,1.33,3.35,2.71,2.87c-0.9-1-1.54-2.03-0.63-3.28C478.39,164.96,476.96,163.89,476.24,164.73z M503.96,166.94
			c-0.67-1.29,0.23-2.31,0.76-3.41C502.93,159.71,500.47,166.6,503.96,166.94z M495.86,159.41c-0.25,0.85-0.49,1.95,0.14,2.69
			c0.7-2.59,2.56-1.58,3.02-3.01C499.27,156.74,496.5,158.26,495.86,159.41z M442.1,148.38c1.06-0.08,1.42-1.65,2.72-1.43
			c0.45-0.02,0.95,0,1.39,0c0.19-0.57,0.61-1.63-0.33-1.67C443.94,145.06,442.12,146.33,442.1,148.38z M472.35,161.52
			c2.44-3.75-4.55-1.42-2.67,1.95C470.15,162.28,471.03,161.39,472.35,161.52z M447.5,156.11c-0.29-1.61,1.53-2.11,1.41-3.45
			C447.21,149.96,445.38,155.57,447.5,156.11z M486.18,160.34c-0.9,0.27-0.96,1.11-0.52,1.78c0.46,0.2,0.46,0.2,0.84,0.85
			c0.05,0.7-0.05,1.33-0.2,2.04C488.36,164.6,487.76,161.07,486.18,160.34z M469.81,114.63c-0.2-0.06-0.28,0.05-0.38,0.13
			c-0.6,0.38-1.16-0.47-0.73-1.04c0.29,0.03,0.42,0.32,0.75,0.18c0.16-0.29,0.23-0.66-0.19-0.79c-0.62-0.34-1.27,0.04-1.87,0.33
			c-1.44,0.19-1.08-1.08-0.17-1.67c-1.86,0.18-1.6,2.26,0.2,2.16C467.87,114.93,470.75,117.02,469.81,114.63z M477.86,114.53
			c-1.08,0.4-1.17,1.86-2.42,1.99c1.61,1.34,2.23-2.7,3.59-0.81C479.42,115.08,478.44,114.35,477.86,114.53z M463.13,123.71
			c-0.36,0.86-0.55,2.42,0.78,2c-0.08-0.88-0.09-1.65,0-2.51C463.53,123.13,463.39,123.51,463.13,123.71z M458.01,153.66
			c-1.47-0.57-1.42,0.75-1.7,1.75C457.34,155.55,457.84,154.55,458.01,153.66z M463.24,117.74c-1.42-1.55-1.6,0.83-1.07,1.9
			C462.66,119.1,462.83,118.33,463.24,117.74z M462.78,113.23c-0.23,0.38-0.85,0.17-1.07,0.5c0.79,0.54,1.39-0.1,1.71-0.77
			c0.5-0.17,1.62,0.31,1.56-0.45C464.15,112.53,462.9,112.02,462.78,113.23z M511.1,160.81c0.32,0.42,0.35,0.87,0.36,1.31
			c0.88-0.15,1.28-1.54,0.71-2.09C511.81,160.29,511.47,160.54,511.1,160.81z M461.46,119.26c0.1-0.91,0.58-1.79,0-2.53
			C460.71,117.41,461.03,118.47,461.46,119.26z M463.99,122.42c-0.71-0.17-1.37-0.39-1.61,0.51
			C463.03,123.23,463.78,123.14,463.99,122.42z"/>
		<path class="st8" d="M449.34,133.06c-1.13-0.96-1.55-2.62-1.51-4.06c0.09-1.04,0.65-2.03,0.59-3.11c-0.1-0.91-0.48-1.68,0.32-2.4
			c-2.39-0.08-0.01,2.85-1.5,3.86c-0.98,1.83-4.52,1.93-4.54-0.52c0.47,0.04,0.84,0.4,1.33,0.28c0.39-0.12,1.51-0.89,0.55-1.02
			c-0.89-0.34-1.3-1.57-0.79-2.36c0.15-0.2,0.61-0.37,0.25-0.65c-0.69,0.13-1.49,0.11-2.16-0.21c-0.49-0.21-0.81,0.32-1.24,0.51
			c-0.73,0.04-1.69,0.15-2.18-0.58c-0.54-2.99-2.41,0.82-2.81-0.11c-0.85-2.78,2.5-4.37,4.74-4.63c1.2,1.48,2.72,1.79,4.57,1.58
			c-1.57-1.44-3.03,0.47-3.56-2.72c-4.96-0.67,1.27-4.57-4.7-4.15c0.23-1.14,1.98-1.53,3.01-1.6c1.57,0.31,2.94,1.09,4.35,1.78
			c0.06,1.02,0.44,1.99,0.61,2.96c4.3,3.9,12.25,15.82,18.28,14.36c-3.2,2.99-1.25,8.29-3.47,9.27c-0.5,0.22-0.37,0.71-0.81,1.01
			c-0.99-0.18-2.3-0.29-2.7-1.38c-0.53-1.03,0.76-2.18,0.02-3.23c-0.63-0.67-0.43,0.58-0.46,0.95c-0.43,0.66-0.55,1.33-0.56,2.07
			c-4.32-2.67-0.56-2.89-1.99-5.63c-0.7,0.12,0,0.85-0.32,1.27c-0.26,0.63-0.79,1.1-0.71,1.83c-0.62-0.65-1.2-1.26-1.56-2.12
			c-0.07-1.34,0.81-2.74,0.26-4.11c-0.11,0.06-0.3,0.04-0.36,0.16C450.35,131.41,449.67,132.12,449.34,133.06z M441.91,112.49
			c-1.29-0.85-3.65-1.51-4.61-0.06c1.14-0.09,2.24,0.16,3.02,0.97C440.79,114.5,442.61,113.43,441.91,112.49z M438.59,121.11
			c2.26-3.69-3.79-1.26-2.65,1.29C436.65,121.61,437.46,121.07,438.59,121.11z M443.21,127.44c2.46,3.19,5.35-2.58,2.36-0.94
			C444.97,127.42,444.3,127.49,443.21,127.44z"/>
		<path class="st8" d="M448.98,110.7c1.41,0.59,1.98,2.69,1.22,3.85c1.68,3.21-1.75,2.14-1.86,4.35c-0.8-0.45-1.18-1.93-2.28-2.33
			c0-0.13,0-0.24,0-0.35c0.62-1.01-0.86-1.71,0.65-2.93c0.62-0.57,1.6,0.57,1.8-0.46c-0.1-0.65-0.21-1.22-0.66-1.72
			C447,110.46,448.49,110.54,448.98,110.7z M448.26,110.99c0.62,0.58,0.58,1.27,0.75,2c-0.41,1.07-0.93,1.64,0.65,2.03
			C450.57,113.69,450.12,111.02,448.26,110.99z"/>
		<path class="st8" d="M474.95,155.57c0.27-0.43,0.66-0.67,1.01-1c-0.58-0.75-1.79-0.74-2.65-0.52c0.35-1.86,4.03-2.55,5.01-0.73
			c0.95,0.14,1.95,0.58,1.76,1.95c-0.44,0.59-0.52,0.57-0.49,1.7C478.02,158.15,474.84,158.08,474.95,155.57z M478.2,153.76
			c-0.85-1.09-3.71-1.51-3.99-0.11c0.78,0.05,1.81-0.21,2.38,0.51C476.8,155.03,478.41,154.64,478.2,153.76z"/>
		<path class="st8" d="M453.94,145.42c0,0.21,0,0.4,0,0.64c-1.02-0.28-2.05-0.5-3.17-0.4c-3.76-2.38,3-3.41-1.95-4.48
			c1.32-1.67,4.5-0.71,4.87,1.3C455.06,142.86,455.16,144.69,453.94,145.42z M453.21,142.53c-0.22-1.45-2.8-2.69-3.69-1.42
			c0.96,0.01,2.09,0.62,2.09,1.7C452.06,143.36,453.25,143.42,453.21,142.53z"/>
		<path class="st8" d="M505.43,153.4c-0.59,0.58,0.34,0.82,0,1.38c-0.36,0.16-0.77,0.13-1.12,0.4c-1.78,1.27-1.07,1.18-2.97,0.23
			c-1.53-0.63-0.3-2.01-0.27-3.03c-0.48-0.74-1.2-0.48-1.84-0.74c0.08-0.8,1.72-1.41,2.59-1.25c0.71,0.04,1.61,0.51,1.83,1.18
			C504.23,152.23,505.63,152.23,505.43,153.4z M503.61,152.81c0.43-0.58-0.47-1.13-0.85-1.51c-0.79-0.66-1.95-0.7-2.74-0.05
			c0.33,0.31,0.67,0.16,1.11,0.39C501.71,152.41,502.54,153.86,503.61,152.81z"/>
	</g>
	<g>
		<path class="st7" d="M653.58,46.73v5.39h-2.23v-3.44h-3.46v13.02h2.45v1.97h-7.99v-1.97h2.48V48.69h-3.5v3.44h-2.23v-5.39H653.58z
			"/>
		<path class="st7" d="M655.34,63.67v-1.97h2.2V48.69h-2.2v-1.95h14.48v4.85h-2.31v-2.9h-6.93v5.28h4.57v-1.62h1.42v5.27h-1.42
			v-1.58h-4.56v5.66h6.94v-2.98h2.31v4.95H655.34z"/>
		<path class="st7" d="M685.44,48.69h-2.36v-1.95h7.12v1.95h-2.48v14.99h-3.01l-8.24-14.02v12.06h2.37v1.97h-7.05v-1.97h2.41V48.69
			h-2.41v-1.95h6.08l7.57,12.91V48.69z"/>
		<path class="st7" d="M705.38,48.69h-2.36v-1.95h7.12v1.95h-2.48v14.99h-3.01l-8.24-14.02v12.06h2.37v1.97h-7.05v-1.97h2.41V48.69
			h-2.41v-1.95h6.08l7.57,12.91V48.69z"/>
		<path class="st7" d="M711.77,63.67v-1.97h2.15V48.69h-2.15v-1.95h7.35v1.95h-2.15v13.02h2.15v1.97H711.77z"/>
		<path class="st7" d="M727.6,63.94c-1.54,0-2.87-0.5-3.97-1.51l-0.01,1.24h-2.38V58h2.38v1.53c0.45,0.72,0.95,1.26,1.52,1.62
			c0.57,0.37,1.25,0.55,2.06,0.55c0.44,0,0.83-0.06,1.19-0.19c0.36-0.12,0.66-0.29,0.92-0.51c0.26-0.22,0.45-0.48,0.59-0.78
			c0.14-0.3,0.21-0.63,0.21-0.99c0-0.48-0.11-0.87-0.33-1.19c-0.22-0.32-0.53-0.59-0.91-0.82c-0.38-0.23-0.83-0.43-1.35-0.6
			c-0.52-0.17-1.08-0.35-1.67-0.52c-0.62-0.18-1.22-0.39-1.79-0.63c-0.57-0.24-1.07-0.54-1.5-0.91c-0.43-0.37-0.78-0.82-1.04-1.35
			c-0.26-0.53-0.39-1.18-0.39-1.94c0-0.75,0.13-1.41,0.4-1.98c0.27-0.57,0.63-1.04,1.1-1.42c0.47-0.38,1.02-0.67,1.66-0.86
			c0.64-0.19,1.33-0.29,2.08-0.29c0.66,0,1.28,0.1,1.87,0.31c0.58,0.21,1.11,0.51,1.58,0.92v-1.21h2.36v4.89h-2.36V50.4
			c-0.42-0.49-0.88-0.86-1.39-1.1c-0.51-0.24-1.09-0.36-1.76-0.36c-0.45,0-0.84,0.05-1.19,0.16s-0.64,0.26-0.88,0.44
			c-0.24,0.18-0.42,0.4-0.55,0.65c-0.13,0.25-0.19,0.52-0.19,0.8c0,0.48,0.13,0.88,0.4,1.19s0.61,0.58,1.04,0.8
			c0.43,0.22,0.92,0.42,1.47,0.59c0.55,0.17,1.12,0.35,1.69,0.54c0.57,0.19,1.13,0.41,1.69,0.66c0.55,0.25,1.04,0.56,1.47,0.94
			c0.43,0.38,0.77,0.84,1.04,1.39c0.26,0.55,0.4,1.22,0.4,2c0,0.76-0.15,1.44-0.44,2.03c-0.29,0.59-0.69,1.1-1.19,1.51
			s-1.08,0.73-1.74,0.95S728.33,63.94,727.6,63.94z"/>
		<path class="st7" d="M735.76,56.62h6.62v2.08h-6.62V56.62z"/>
		<path class="st7" d="M743.02,61.71h2.05l4.07-13.02h-1.65v-1.95h8.94v1.95h-1.64l4.13,13.02h2.01v1.97h-7.18v-1.97h2.17
			l-1.09-4.11h-6l-1.11,4.11h2.22v1.97h-6.91V61.71z M754.26,55.63l-2.1-6.94h-0.57l-2.16,6.94H754.26z"/>
		<path class="st7" d="M762.25,63.67v-1.97h2.16V48.69h-2.16v-1.95h7.47c0.96,0,1.8,0.1,2.54,0.31s1.35,0.5,1.84,0.89
			c0.49,0.39,0.87,0.85,1.12,1.39c0.26,0.54,0.38,1.15,0.38,1.83c0,0.44-0.06,0.84-0.18,1.21c-0.12,0.37-0.29,0.71-0.5,1.01
			c-0.21,0.3-0.47,0.57-0.77,0.79c-0.3,0.23-0.62,0.42-0.98,0.56c0.98,0.31,1.75,0.81,2.33,1.52c0.58,0.71,0.87,1.58,0.87,2.62
			c0,0.57-0.1,1.13-0.3,1.7c-0.2,0.57-0.54,1.08-1.03,1.54s-1.14,0.83-1.97,1.12c-0.82,0.29-1.86,0.43-3.12,0.43H762.25z
			 M767.46,53.84h1.63c1.22,0,2.1-0.22,2.63-0.66c0.54-0.44,0.81-1.07,0.81-1.9c0-0.44-0.07-0.82-0.2-1.14
			c-0.13-0.33-0.35-0.6-0.65-0.82c-0.3-0.22-0.69-0.38-1.17-0.49c-0.48-0.11-1.06-0.16-1.74-0.16h-1.31V53.84z M767.46,61.71h1.92
			c0.73,0,1.33-0.07,1.83-0.2c0.49-0.13,0.89-0.33,1.19-0.59c0.3-0.26,0.52-0.57,0.65-0.93c0.13-0.37,0.19-0.78,0.19-1.25
			c0-0.85-0.31-1.52-0.92-2.02s-1.57-0.75-2.86-0.75h-2.01V61.71z"/>
		<path class="st7" d="M793.04,46.73v5.39h-2.23v-3.44h-3.46v13.02h2.45v1.97h-7.99v-1.97h2.48V48.69h-3.5v3.44h-2.23v-5.39H793.04z
			"/>
		<path class="st7" d="M794.8,63.67v-1.97h2.2V48.69h-2.2v-1.95h14.48v4.85h-2.31v-2.9h-6.93v5.28h4.57v-1.62h1.42v5.27h-1.42v-1.58
			h-4.56v5.66H807v-2.98h2.31v4.95H794.8z"/>
		<path class="st7" d="M811.42,63.67v-1.97h2.15V48.69h-2.15v-1.95h7.35v1.95h-2.15v13.02h2.15v1.97H811.42z"/>
		<path class="st7" d="M820.58,63.67v-1.97h2.36V48.69h-2.36v-1.95h7.72v1.95h-2.33v13.02h5.7v-5.09h2.51v7.05H820.58z"/>
		<path class="st7" d="M842.99,63.94c-1.28,0-2.33-0.16-3.15-0.49c-0.82-0.33-1.46-0.78-1.94-1.35c-0.47-0.58-0.8-1.25-0.98-2.03
			s-0.26-1.62-0.26-2.53v-8.85h-2.12v-1.95h7.08v1.95h-1.92v9.33c0,0.59,0.06,1.11,0.19,1.57c0.13,0.46,0.32,0.85,0.59,1.16
			c0.27,0.31,0.62,0.55,1.05,0.72c0.43,0.17,0.94,0.25,1.55,0.25c0.63,0,1.17-0.08,1.61-0.24s0.8-0.4,1.07-0.73
			c0.27-0.32,0.47-0.72,0.6-1.18c0.13-0.47,0.19-1.01,0.19-1.61v-9.26h-1.9v-1.95h6.59v1.95h-2.15v9.13c0,1.08-0.14,2-0.43,2.77
			s-0.69,1.41-1.22,1.9c-0.53,0.5-1.17,0.86-1.92,1.09C844.78,63.82,843.93,63.94,842.99,63.94z"/>
		<path class="st7" d="M866.45,48.69h-2.36v-1.95h7.12v1.95h-2.48v14.99h-3.01l-8.24-14.02v12.06h2.37v1.97h-7.05v-1.97h2.41V48.69
			h-2.41v-1.95h6.08l7.57,12.91V48.69z"/>
		<path class="st7" d="M883.12,57.43v-2.09h6.51c-0.02,1.51-0.23,2.8-0.63,3.88s-0.96,1.97-1.69,2.68c-0.73,0.7-1.62,1.22-2.66,1.55
			c-1.04,0.33-2.21,0.49-3.51,0.49c-1.15,0-2.18-0.13-3.07-0.38c-0.9-0.25-1.68-0.6-2.35-1.03s-1.24-0.94-1.7-1.51
			c-0.46-0.57-0.84-1.18-1.13-1.82c-0.29-0.64-0.5-1.3-0.62-1.97c-0.13-0.67-0.19-1.32-0.19-1.94c0-1.04,0.17-2.08,0.52-3.1
			c0.34-1.02,0.87-1.94,1.59-2.75c0.72-0.81,1.62-1.47,2.72-1.97c1.1-0.5,2.4-0.75,3.92-0.75c1.13,0,2.16,0.18,3.08,0.53
			c0.92,0.35,1.69,0.82,2.31,1.39v-1.91h2.38v5.35h-2.16c-0.51-1.05-1.21-1.83-2.1-2.36c-0.89-0.53-1.94-0.79-3.16-0.79
			c-0.91,0-1.72,0.15-2.44,0.46s-1.32,0.74-1.82,1.3c-0.5,0.56-0.88,1.22-1.14,1.99c-0.26,0.77-0.39,1.61-0.39,2.52
			c0,0.98,0.13,1.87,0.4,2.67c0.27,0.8,0.66,1.48,1.17,2.04c0.51,0.56,1.13,1,1.85,1.3c0.72,0.3,1.54,0.46,2.45,0.46
			c1.68,0,2.95-0.37,3.8-1.12c0.85-0.75,1.3-1.79,1.35-3.13H883.12z"/>
		<path class="st7" d="M650.54,82.8v-2.09h6.51c-0.02,1.51-0.23,2.8-0.63,3.88s-0.96,1.97-1.69,2.68c-0.73,0.7-1.62,1.22-2.66,1.55
			c-1.04,0.33-2.21,0.49-3.51,0.49c-1.15,0-2.18-0.13-3.07-0.38c-0.9-0.25-1.68-0.6-2.35-1.03s-1.24-0.94-1.7-1.51
			c-0.46-0.57-0.84-1.18-1.13-1.82c-0.29-0.64-0.5-1.3-0.62-1.97c-0.13-0.67-0.19-1.32-0.19-1.94c0-1.04,0.17-2.08,0.52-3.1
			c0.34-1.02,0.87-1.94,1.59-2.75c0.72-0.81,1.62-1.47,2.72-1.97c1.1-0.5,2.4-0.75,3.92-0.75c1.13,0,2.16,0.18,3.08,0.53
			c0.92,0.35,1.69,0.82,2.31,1.39v-1.91h2.38v5.35h-2.16c-0.51-1.05-1.21-1.83-2.1-2.36c-0.89-0.53-1.94-0.79-3.16-0.79
			c-0.91,0-1.72,0.15-2.44,0.46s-1.32,0.74-1.82,1.3c-0.5,0.56-0.88,1.22-1.14,1.99c-0.26,0.77-0.39,1.61-0.39,2.52
			c0,0.98,0.13,1.87,0.4,2.67c0.27,0.8,0.66,1.48,1.17,2.04c0.51,0.56,1.13,1,1.85,1.3c0.72,0.3,1.54,0.46,2.45,0.46
			c1.68,0,2.95-0.37,3.8-1.12c0.85-0.75,1.3-1.79,1.35-3.13H650.54z"/>
		<path class="st7" d="M658.66,89.05v-1.97h2.15V74.06h-2.15v-1.95h7.35v1.95h-2.15v13.02h2.15v1.97H658.66z"/>
		<path class="st7" d="M667.81,89.05v-1.97h2.36V74.06h-2.36v-1.95h7.72v1.95h-2.33v13.02h5.7V82h2.51v7.05H667.81z"/>
		<path class="st7" d="M683.07,89.05v-1.97h2.41V74.06h-2.41v-1.95h8.38c1.5,0,2.82,0.22,3.93,0.65s2.04,1.02,2.77,1.78
			c0.73,0.75,1.28,1.64,1.64,2.66s0.54,2.11,0.54,3.28c0,1.32-0.19,2.51-0.56,3.57c-0.37,1.06-0.93,1.96-1.67,2.7
			s-1.67,1.31-2.79,1.71c-1.12,0.4-2.41,0.6-3.89,0.6H683.07z M688.53,87.08h2.63c1.09,0,2.01-0.16,2.78-0.49
			c0.77-0.33,1.39-0.78,1.87-1.36c0.48-0.58,0.83-1.27,1.04-2.07c0.22-0.8,0.33-1.67,0.33-2.61c0-0.93-0.11-1.79-0.33-2.59
			c-0.22-0.79-0.57-1.48-1.04-2.06c-0.47-0.58-1.08-1.03-1.83-1.36c-0.75-0.33-1.65-0.49-2.7-0.49h-2.75V87.08z"/>
		<path class="st7" d="M701.69,89.05v-1.97h2.2V74.06h-2.2v-1.95h14.48v4.85h-2.31v-2.9h-6.93v5.28h4.57v-1.62h1.42V83h-1.42v-1.58
			h-4.56v5.66h6.94V84.1h2.31v4.95H701.69z"/>
		<path class="st7" d="M735.83,82.8v-2.09h6.51c-0.02,1.51-0.23,2.8-0.63,3.88s-0.96,1.97-1.69,2.68c-0.73,0.7-1.62,1.22-2.66,1.55
			c-1.04,0.33-2.21,0.49-3.51,0.49c-1.15,0-2.18-0.13-3.07-0.38c-0.9-0.25-1.68-0.6-2.35-1.03s-1.24-0.94-1.7-1.51
			c-0.46-0.57-0.84-1.18-1.13-1.82c-0.29-0.64-0.5-1.3-0.62-1.97c-0.13-0.67-0.19-1.32-0.19-1.94c0-1.04,0.17-2.08,0.52-3.1
			c0.34-1.02,0.87-1.94,1.59-2.75c0.72-0.81,1.62-1.47,2.72-1.97c1.1-0.5,2.4-0.75,3.92-0.75c1.13,0,2.16,0.18,3.08,0.53
			c0.92,0.35,1.69,0.82,2.31,1.39v-1.91h2.38v5.35h-2.16c-0.51-1.05-1.21-1.83-2.1-2.36c-0.89-0.53-1.94-0.79-3.16-0.79
			c-0.91,0-1.72,0.15-2.44,0.46s-1.32,0.74-1.82,1.3c-0.5,0.56-0.88,1.22-1.14,1.99c-0.26,0.77-0.39,1.61-0.39,2.52
			c0,0.98,0.13,1.87,0.4,2.67c0.27,0.8,0.66,1.48,1.17,2.04c0.51,0.56,1.13,1,1.85,1.3c0.72,0.3,1.54,0.46,2.45,0.46
			c1.68,0,2.95-0.37,3.8-1.12c0.85-0.75,1.3-1.79,1.35-3.13H735.83z"/>
		<path class="st7" d="M760.05,87.08v1.97h-4.52l-4.11-7.76h-2.23v5.8h2.23v1.97h-7.64v-1.97h2.37V74.06h-2.37v-1.95h8.35
			c0.85,0,1.64,0.08,2.36,0.25c0.72,0.17,1.34,0.43,1.87,0.79c0.52,0.36,0.93,0.82,1.23,1.38c0.29,0.56,0.44,1.24,0.44,2.03
			c0,1.13-0.3,2.07-0.91,2.8c-0.6,0.73-1.55,1.26-2.83,1.59l3.37,6.13H760.05z M749.19,79.26h2.77c0.59,0,1.07-0.08,1.46-0.24
			c0.39-0.16,0.69-0.36,0.93-0.61s0.4-0.53,0.49-0.85s0.14-0.64,0.14-0.96c0-0.34-0.06-0.67-0.18-0.98s-0.3-0.58-0.54-0.81
			c-0.24-0.23-0.53-0.42-0.88-0.55s-0.75-0.2-1.22-0.2h-2.97V79.26z"/>
		<path class="st7" d="M768.37,89.31c-1.28,0-2.33-0.16-3.15-0.49c-0.82-0.33-1.46-0.78-1.94-1.35c-0.47-0.58-0.8-1.25-0.98-2.03
			s-0.26-1.62-0.26-2.53v-8.85h-2.12v-1.95H767v1.95h-1.92v9.33c0,0.59,0.06,1.11,0.19,1.57c0.13,0.46,0.32,0.85,0.59,1.16
			c0.27,0.31,0.62,0.55,1.05,0.72c0.43,0.17,0.94,0.25,1.55,0.25c0.63,0,1.17-0.08,1.61-0.24s0.8-0.4,1.07-0.73
			c0.27-0.32,0.47-0.72,0.6-1.18c0.13-0.47,0.19-1.01,0.19-1.61v-9.26h-1.9v-1.95h6.59v1.95h-2.15v9.13c0,1.08-0.14,2-0.43,2.77
			s-0.69,1.41-1.22,1.9c-0.53,0.5-1.17,0.86-1.92,1.09C770.15,89.2,769.31,89.31,768.37,89.31z M767.04,66.98v2.58h-2.61v-2.58
			H767.04z M769.53,66.98h2.61v2.58h-2.61V66.98z"/>
		<path class="st7" d="M791.82,74.06h-2.36v-1.95h7.12v1.95h-2.48v14.99h-3.01l-8.24-14.02v12.06h2.37v1.97h-7.05v-1.97h2.41V74.06
			h-2.41v-1.95h6.08l7.57,12.91V74.06z"/>
		<path class="st7" d="M797.94,82h6.62v2.08h-6.62V82z"/>
		<path class="st7" d="M825.87,74.06h-2.01v-1.95h6.44v1.95h-1.99l-4.61,14.99h-2.56l-3.76-12.25l-3.71,12.25h-2.52l-4.73-14.99
			h-2.02v-1.95h6.89v1.95h-1.99l3.32,11.05l3.23-11.05h-1.81v-1.95h7.03v1.95h-1.77l3.3,11.05L825.87,74.06z"/>
		<path class="st7" d="M831.61,89.05v-1.97h2.2V74.06h-2.2v-1.95h14.48v4.85h-2.31v-2.9h-6.93v5.28h4.57v-1.62h1.42V83h-1.42v-1.58
			h-4.56v5.66h6.94V84.1h2.31v4.95H831.61z"/>
		<path class="st7" d="M848.23,89.05v-1.97h2.15V74.06h-2.15v-1.95h7.35v1.95h-2.15v13.02h2.15v1.97H848.23z"/>
		<path class="st7" d="M864.07,89.31c-1.54,0-2.87-0.5-3.97-1.51l-0.01,1.24h-2.38v-5.67h2.38v1.53c0.45,0.72,0.95,1.26,1.52,1.62
			c0.57,0.37,1.25,0.55,2.06,0.55c0.44,0,0.83-0.06,1.19-0.19c0.36-0.12,0.66-0.29,0.92-0.51c0.26-0.22,0.45-0.48,0.59-0.78
			c0.14-0.3,0.21-0.63,0.21-0.99c0-0.48-0.11-0.87-0.33-1.19c-0.22-0.32-0.53-0.59-0.91-0.82c-0.38-0.23-0.83-0.43-1.35-0.6
			c-0.52-0.17-1.08-0.35-1.67-0.52c-0.62-0.18-1.22-0.39-1.79-0.63c-0.57-0.24-1.07-0.54-1.5-0.91c-0.43-0.37-0.78-0.82-1.04-1.35
			c-0.26-0.53-0.39-1.18-0.39-1.94c0-0.75,0.13-1.41,0.4-1.98c0.27-0.57,0.63-1.04,1.1-1.42c0.47-0.38,1.02-0.67,1.66-0.86
			c0.64-0.19,1.33-0.29,2.08-0.29c0.66,0,1.28,0.1,1.87,0.31c0.58,0.21,1.11,0.51,1.58,0.92v-1.21h2.36V77h-2.36v-1.23
			c-0.42-0.49-0.88-0.86-1.39-1.1c-0.51-0.24-1.09-0.36-1.76-0.36c-0.45,0-0.84,0.05-1.19,0.16s-0.64,0.26-0.88,0.44
			c-0.24,0.18-0.42,0.4-0.55,0.65c-0.13,0.25-0.19,0.52-0.19,0.8c0,0.48,0.13,0.88,0.4,1.19s0.61,0.58,1.04,0.8
			c0.43,0.22,0.92,0.42,1.47,0.59c0.55,0.17,1.12,0.35,1.69,0.54c0.57,0.19,1.13,0.41,1.69,0.66c0.55,0.25,1.04,0.56,1.47,0.94
			c0.43,0.38,0.77,0.84,1.04,1.39c0.26,0.55,0.4,1.22,0.4,2c0,0.76-0.15,1.44-0.44,2.03c-0.29,0.59-0.69,1.1-1.19,1.51
			s-1.08,0.73-1.74,0.95S864.79,89.31,864.07,89.31z"/>
		<path class="st7" d="M878.26,89.31c-1.54,0-2.87-0.5-3.97-1.51l-0.01,1.24h-2.38v-5.67h2.38v1.53c0.45,0.72,0.95,1.26,1.52,1.62
			c0.57,0.37,1.25,0.55,2.06,0.55c0.44,0,0.83-0.06,1.19-0.19c0.36-0.12,0.66-0.29,0.92-0.51c0.26-0.22,0.45-0.48,0.59-0.78
			c0.14-0.3,0.21-0.63,0.21-0.99c0-0.48-0.11-0.87-0.33-1.19c-0.22-0.32-0.53-0.59-0.91-0.82c-0.38-0.23-0.83-0.43-1.35-0.6
			c-0.52-0.17-1.08-0.35-1.67-0.52c-0.62-0.18-1.22-0.39-1.79-0.63c-0.57-0.24-1.07-0.54-1.5-0.91c-0.43-0.37-0.78-0.82-1.04-1.35
			c-0.26-0.53-0.39-1.18-0.39-1.94c0-0.75,0.13-1.41,0.4-1.98c0.27-0.57,0.63-1.04,1.1-1.42c0.47-0.38,1.02-0.67,1.66-0.86
			c0.64-0.19,1.33-0.29,2.08-0.29c0.66,0,1.28,0.1,1.87,0.31c0.58,0.21,1.11,0.51,1.58,0.92v-1.21h2.36V77h-2.36v-1.23
			c-0.42-0.49-0.88-0.86-1.39-1.1c-0.51-0.24-1.09-0.36-1.76-0.36c-0.45,0-0.84,0.05-1.19,0.16s-0.64,0.26-0.88,0.44
			c-0.24,0.18-0.42,0.4-0.55,0.65c-0.13,0.25-0.19,0.52-0.19,0.8c0,0.48,0.13,0.88,0.4,1.19s0.61,0.58,1.04,0.8
			c0.43,0.22,0.92,0.42,1.47,0.59c0.55,0.17,1.12,0.35,1.69,0.54c0.57,0.19,1.13,0.41,1.69,0.66c0.55,0.25,1.04,0.56,1.47,0.94
			c0.43,0.38,0.77,0.84,1.04,1.39c0.26,0.55,0.4,1.22,0.4,2c0,0.76-0.15,1.44-0.44,2.03c-0.29,0.59-0.69,1.1-1.19,1.51
			s-1.08,0.73-1.74,0.95S878.99,89.31,878.26,89.31z"/>
		<path class="st7" d="M646.14,114.69c-1.54,0-2.87-0.5-3.97-1.5l-0.01,1.24h-2.38v-5.67h2.38v1.53c0.45,0.72,0.95,1.26,1.52,1.62
			c0.57,0.37,1.25,0.55,2.06,0.55c0.44,0,0.83-0.06,1.19-0.18c0.36-0.12,0.66-0.3,0.92-0.51c0.26-0.22,0.45-0.48,0.59-0.78
			c0.14-0.3,0.21-0.63,0.21-0.99c0-0.48-0.11-0.87-0.33-1.19s-0.53-0.59-0.91-0.82s-0.83-0.43-1.35-0.6
			c-0.52-0.17-1.08-0.35-1.67-0.52c-0.62-0.18-1.22-0.39-1.79-0.63c-0.57-0.24-1.07-0.54-1.5-0.91c-0.43-0.37-0.78-0.82-1.04-1.35
			c-0.26-0.53-0.39-1.18-0.39-1.94c0-0.75,0.13-1.41,0.4-1.98c0.27-0.57,0.63-1.04,1.1-1.42c0.47-0.38,1.02-0.67,1.66-0.86
			c0.64-0.19,1.33-0.29,2.08-0.29c0.66,0,1.28,0.1,1.87,0.31c0.58,0.21,1.11,0.51,1.58,0.92v-1.21h2.36v4.89h-2.36v-1.23
			c-0.42-0.49-0.88-0.86-1.39-1.1c-0.51-0.24-1.09-0.36-1.76-0.36c-0.45,0-0.84,0.05-1.19,0.16c-0.34,0.11-0.64,0.26-0.88,0.44
			c-0.24,0.18-0.42,0.4-0.55,0.65c-0.13,0.25-0.19,0.52-0.19,0.8c0,0.48,0.13,0.88,0.4,1.19c0.26,0.31,0.61,0.58,1.04,0.8
			c0.43,0.22,0.92,0.42,1.47,0.59c0.55,0.17,1.12,0.35,1.69,0.54c0.57,0.19,1.13,0.41,1.69,0.66s1.04,0.56,1.47,0.94
			s0.77,0.84,1.04,1.39c0.26,0.55,0.4,1.22,0.4,2c0,0.76-0.15,1.44-0.44,2.03c-0.29,0.59-0.69,1.1-1.19,1.51
			c-0.5,0.41-1.08,0.73-1.74,0.95S646.86,114.69,646.14,114.69z"/>
		<path class="st7" d="M662.13,114.69c-1.46,0-2.74-0.23-3.83-0.69c-1.09-0.46-2-1.08-2.73-1.86c-0.73-0.78-1.28-1.69-1.64-2.72
			s-0.54-2.14-0.54-3.32c0-1.28,0.2-2.44,0.6-3.5c0.4-1.06,0.98-1.96,1.73-2.73c0.75-0.76,1.67-1.35,2.75-1.77
			c1.08-0.42,2.31-0.63,3.67-0.63c1.1,0,2.08,0.18,2.95,0.54s1.63,0.84,2.28,1.45v-1.97h2.29v5.34h-2.16
			c-0.28-0.55-0.6-1.03-0.97-1.43s-0.77-0.72-1.21-0.98c-0.44-0.25-0.9-0.44-1.4-0.56c-0.5-0.12-1.02-0.17-1.55-0.17
			c-0.88,0-1.67,0.16-2.37,0.48c-0.7,0.32-1.29,0.76-1.79,1.33c-0.49,0.57-0.87,1.24-1.13,2.01c-0.26,0.78-0.39,1.62-0.39,2.55
			c0,0.9,0.12,1.74,0.36,2.52c0.24,0.78,0.6,1.46,1.08,2.03c0.48,0.58,1.07,1.03,1.78,1.36c0.71,0.33,1.52,0.49,2.44,0.49
			c0.61,0,1.21-0.08,1.78-0.24s1.1-0.41,1.58-0.75s0.89-0.77,1.25-1.3c0.35-0.52,0.62-1.15,0.81-1.88l2.38,1.13
			c-0.32,1.02-0.75,1.86-1.3,2.53c-0.55,0.67-1.17,1.21-1.88,1.61c-0.7,0.41-1.47,0.69-2.29,0.86
			C663.86,114.61,663.01,114.69,662.13,114.69z"/>
		<path class="st7" d="M671.77,114.43v-1.97h2.04V99.44h-2.04v-1.95h7.07v1.95h-1.98v5.05h7.04v-5.05h-1.97v-1.95h7.04v1.95h-2.04
			v13.02h2.04v1.97h-7.04v-1.97h1.97v-5.84h-7.04v5.84h1.98v1.97H671.77z"/>
		<path class="st7" d="M690.85,114.43v-1.97H693V99.44h-2.15v-1.95h7.35v1.95h-2.15v13.02h2.15v1.97H690.85z"/>
		<path class="st7" d="M700.04,114.43v-1.97h2.2V99.44h-2.2v-1.95h14.48v4.85h-2.31v-2.9h-6.93v5.28h4.57v-1.62h1.42v5.27h-1.42
			v-1.58h-4.56v5.66h6.94v-2.98h2.31v4.95H700.04z"/>
		<path class="st7" d="M723.7,114.69c-1.54,0-2.87-0.5-3.97-1.5l-0.01,1.24h-2.38v-5.67h2.38v1.53c0.45,0.72,0.95,1.26,1.52,1.62
			c0.57,0.37,1.25,0.55,2.06,0.55c0.44,0,0.83-0.06,1.19-0.18c0.36-0.12,0.66-0.3,0.92-0.51c0.26-0.22,0.45-0.48,0.59-0.78
			c0.14-0.3,0.21-0.63,0.21-0.99c0-0.48-0.11-0.87-0.33-1.19s-0.53-0.59-0.91-0.82s-0.83-0.43-1.35-0.6
			c-0.52-0.17-1.08-0.35-1.67-0.52c-0.62-0.18-1.22-0.39-1.79-0.63c-0.57-0.24-1.07-0.54-1.5-0.91c-0.43-0.37-0.78-0.82-1.04-1.35
			c-0.26-0.53-0.39-1.18-0.39-1.94c0-0.75,0.13-1.41,0.4-1.98c0.27-0.57,0.63-1.04,1.1-1.42c0.47-0.38,1.02-0.67,1.66-0.86
			c0.64-0.19,1.33-0.29,2.08-0.29c0.66,0,1.28,0.1,1.87,0.31c0.58,0.21,1.11,0.51,1.58,0.92v-1.21h2.36v4.89h-2.36v-1.23
			c-0.42-0.49-0.88-0.86-1.39-1.1c-0.51-0.24-1.09-0.36-1.76-0.36c-0.45,0-0.84,0.05-1.19,0.16c-0.34,0.11-0.64,0.26-0.88,0.44
			c-0.24,0.18-0.42,0.4-0.55,0.65c-0.13,0.25-0.19,0.52-0.19,0.8c0,0.48,0.13,0.88,0.4,1.19c0.26,0.31,0.61,0.58,1.04,0.8
			c0.43,0.22,0.92,0.42,1.47,0.59c0.55,0.17,1.12,0.35,1.69,0.54c0.57,0.19,1.13,0.41,1.69,0.66s1.04,0.56,1.47,0.94
			s0.77,0.84,1.04,1.39c0.26,0.55,0.4,1.22,0.4,2c0,0.76-0.15,1.44-0.44,2.03c-0.29,0.59-0.69,1.1-1.19,1.51
			c-0.5,0.41-1.08,0.73-1.74,0.95S724.42,114.69,723.7,114.69z"/>
		<path class="st7" d="M737.89,114.69c-1.54,0-2.87-0.5-3.97-1.5l-0.01,1.24h-2.38v-5.67h2.38v1.53c0.45,0.72,0.95,1.26,1.52,1.62
			c0.57,0.37,1.25,0.55,2.06,0.55c0.44,0,0.83-0.06,1.19-0.18c0.36-0.12,0.66-0.3,0.92-0.51c0.26-0.22,0.45-0.48,0.59-0.78
			c0.14-0.3,0.21-0.63,0.21-0.99c0-0.48-0.11-0.87-0.33-1.19s-0.53-0.59-0.91-0.82s-0.83-0.43-1.35-0.6
			c-0.52-0.17-1.08-0.35-1.67-0.52c-0.62-0.18-1.22-0.39-1.79-0.63c-0.57-0.24-1.07-0.54-1.5-0.91c-0.43-0.37-0.78-0.82-1.04-1.35
			c-0.26-0.53-0.39-1.18-0.39-1.94c0-0.75,0.13-1.41,0.4-1.98c0.27-0.57,0.63-1.04,1.1-1.42c0.47-0.38,1.02-0.67,1.66-0.86
			c0.64-0.19,1.33-0.29,2.08-0.29c0.66,0,1.28,0.1,1.87,0.31c0.58,0.21,1.11,0.51,1.58,0.92v-1.21h2.36v4.89h-2.36v-1.23
			c-0.42-0.49-0.88-0.86-1.39-1.1c-0.51-0.24-1.09-0.36-1.76-0.36c-0.45,0-0.84,0.05-1.19,0.16c-0.34,0.11-0.64,0.26-0.88,0.44
			c-0.24,0.18-0.42,0.4-0.55,0.65c-0.13,0.25-0.19,0.52-0.19,0.8c0,0.48,0.13,0.88,0.4,1.19c0.26,0.31,0.61,0.58,1.04,0.8
			c0.43,0.22,0.92,0.42,1.47,0.59c0.55,0.17,1.12,0.35,1.69,0.54c0.57,0.19,1.13,0.41,1.69,0.66s1.04,0.56,1.47,0.94
			s0.77,0.84,1.04,1.39c0.26,0.55,0.4,1.22,0.4,2c0,0.76-0.15,1.44-0.44,2.03c-0.29,0.59-0.69,1.1-1.19,1.51
			c-0.5,0.41-1.08,0.73-1.74,0.95S738.62,114.69,737.89,114.69z"/>
		<path class="st7" d="M746.05,107.37h6.62v2.08h-6.62V107.37z"/>
		<path class="st7" d="M753.31,112.46h2.05l4.07-13.02h-1.65v-1.95h8.94v1.95h-1.64l4.13,13.02h2.01v1.97h-7.18v-1.97h2.17
			l-1.09-4.11h-6l-1.11,4.11h2.22v1.97h-6.91V112.46z M764.55,106.38l-2.1-6.94h-0.57l-2.16,6.94H764.55z"/>
		<path class="st7" d="M772.54,114.43v-1.97h2.16V99.44h-2.16v-1.95h7.47c0.96,0,1.8,0.1,2.54,0.31c0.73,0.21,1.35,0.5,1.84,0.89
			c0.49,0.39,0.87,0.85,1.12,1.39c0.26,0.54,0.38,1.16,0.38,1.83c0,0.44-0.06,0.84-0.18,1.21c-0.12,0.37-0.29,0.71-0.5,1.01
			c-0.21,0.3-0.47,0.57-0.77,0.79c-0.3,0.23-0.62,0.42-0.98,0.56c0.98,0.31,1.75,0.81,2.33,1.52s0.87,1.58,0.87,2.62
			c0,0.57-0.1,1.13-0.3,1.7c-0.2,0.57-0.54,1.08-1.03,1.54s-1.14,0.83-1.97,1.12c-0.82,0.29-1.86,0.43-3.12,0.43H772.54z
			 M777.75,104.6h1.63c1.22,0,2.1-0.22,2.63-0.65c0.54-0.44,0.81-1.07,0.81-1.9c0-0.44-0.07-0.82-0.2-1.14s-0.35-0.6-0.65-0.82
			c-0.3-0.22-0.69-0.38-1.17-0.49c-0.48-0.11-1.06-0.16-1.74-0.16h-1.31V104.6z M777.75,112.46h1.92c0.73,0,1.33-0.07,1.83-0.2
			c0.49-0.13,0.89-0.33,1.19-0.58c0.3-0.26,0.52-0.57,0.65-0.93c0.13-0.37,0.19-0.78,0.19-1.25c0-0.85-0.31-1.52-0.92-2.02
			s-1.57-0.75-2.86-0.75h-2.01V112.46z"/>
		<path class="st7" d="M803.33,97.49v5.64h-2.23v-3.68h-3.46v13.02h2.45v1.97h-7.99v-1.97h2.48V99.44h-3.5v3.68h-2.23v-5.64H803.33z
			"/>
		<path class="st7" d="M805.09,114.43v-1.97h2.2V99.44h-2.2v-1.95h14.48v4.85h-2.31v-2.9h-6.93v5.28h4.57v-1.62h1.42v5.27h-1.42
			v-1.58h-4.56v5.66h6.94v-2.98h2.31v4.95H805.09z"/>
		<path class="st7" d="M821.71,114.43v-1.97h2.15V99.44h-2.15v-1.95h7.35v1.95h-2.15v13.02h2.15v1.97H821.71z"/>
		<path class="st7" d="M830.87,114.43v-1.97h2.36V99.44h-2.36v-1.95h7.72v1.95h-2.33v13.02h5.7v-5.09h2.51v7.05H830.87z"/>
		<path class="st7" d="M853.28,114.69c-1.28,0-2.33-0.16-3.15-0.49c-0.82-0.33-1.46-0.78-1.94-1.35c-0.47-0.58-0.8-1.25-0.98-2.03
			c-0.18-0.78-0.26-1.62-0.26-2.53v-8.85h-2.12v-1.95h7.08v1.95h-1.92v9.33c0,0.58,0.06,1.11,0.19,1.57
			c0.13,0.46,0.32,0.85,0.59,1.16s0.62,0.55,1.05,0.72c0.43,0.17,0.94,0.25,1.55,0.25c0.63,0,1.17-0.08,1.61-0.24
			c0.44-0.16,0.8-0.4,1.07-0.72c0.27-0.32,0.47-0.71,0.6-1.18c0.13-0.47,0.19-1.01,0.19-1.61v-9.26h-1.9v-1.95h6.59v1.95h-2.15v9.13
			c0,1.08-0.14,2-0.43,2.77c-0.28,0.77-0.69,1.41-1.22,1.9c-0.53,0.5-1.17,0.86-1.92,1.09
			C855.07,114.57,854.22,114.69,853.28,114.69z"/>
		<path class="st7" d="M876.74,99.44h-2.36v-1.95h7.12v1.95h-2.48v14.99h-3.01l-8.24-14.02v12.06h2.37v1.97h-7.05v-1.97h2.41V99.44
			h-2.41v-1.95h6.08l7.57,12.91V99.44z"/>
		<path class="st7" d="M893.41,108.18v-2.09h6.51c-0.02,1.5-0.23,2.8-0.63,3.88c-0.4,1.08-0.96,1.98-1.69,2.68
			c-0.73,0.7-1.62,1.22-2.66,1.55c-1.04,0.33-2.21,0.5-3.51,0.5c-1.15,0-2.18-0.13-3.07-0.38c-0.9-0.25-1.68-0.6-2.35-1.03
			s-1.24-0.94-1.7-1.51c-0.46-0.57-0.84-1.18-1.13-1.82c-0.29-0.64-0.5-1.3-0.62-1.97c-0.13-0.67-0.19-1.32-0.19-1.94
			c0-1.05,0.17-2.08,0.52-3.1c0.34-1.02,0.87-1.94,1.59-2.75s1.62-1.47,2.72-1.97c1.1-0.5,2.4-0.75,3.92-0.75
			c1.13,0,2.16,0.18,3.08,0.53c0.92,0.35,1.69,0.82,2.31,1.39v-1.91h2.38v5.35h-2.16c-0.51-1.05-1.21-1.83-2.1-2.36
			s-1.94-0.79-3.16-0.79c-0.91,0-1.72,0.15-2.44,0.46s-1.32,0.74-1.82,1.3c-0.5,0.55-0.88,1.22-1.14,1.99
			c-0.26,0.77-0.39,1.61-0.39,2.52c0,0.98,0.13,1.87,0.4,2.67c0.27,0.8,0.66,1.48,1.17,2.04c0.51,0.56,1.13,1,1.85,1.3
			c0.72,0.31,1.54,0.46,2.45,0.46c1.68,0,2.95-0.37,3.8-1.12c0.85-0.75,1.3-1.79,1.35-3.13H893.41z"/>
	</g>
	<g>
		<path class="st7" d="M240.52,63.54v-1.97h2.27V48.55h-2.27V46.6h14.02v4.84h-2.36v-2.89h-6.34v5.27h3.88v-1.56h1.48v5.23h-1.48
			v-1.58h-3.88v5.66h2.4v1.97H240.52z"/>
		<path class="st7" d="M272.33,61.57v1.97h-4.52l-4.11-7.76h-2.23v5.8h2.23v1.97h-7.64v-1.97h2.37V48.55h-2.37V46.6h8.35
			c0.85,0,1.64,0.08,2.36,0.25c0.72,0.17,1.34,0.43,1.87,0.79c0.52,0.36,0.93,0.82,1.23,1.38c0.29,0.56,0.44,1.24,0.44,2.03
			c0,1.13-0.3,2.07-0.91,2.8c-0.6,0.73-1.55,1.26-2.83,1.59l3.37,6.13H272.33z M261.47,53.75h2.77c0.59,0,1.07-0.08,1.46-0.24
			c0.39-0.16,0.69-0.36,0.93-0.61s0.4-0.53,0.49-0.85c0.09-0.32,0.14-0.64,0.14-0.96c0-0.34-0.06-0.67-0.18-0.98
			c-0.12-0.31-0.3-0.58-0.54-0.81c-0.24-0.23-0.53-0.42-0.88-0.55c-0.35-0.13-0.75-0.2-1.22-0.2h-2.97V53.75z"/>
		<path class="st7" d="M273.19,61.57h2.05l4.07-13.02h-1.65V46.6h8.94v1.95h-1.65l4.13,13.02h2.01v1.97h-7.18v-1.97h2.17L285,57.46
			h-5.99l-1.12,4.11h2.22v1.97h-6.91V61.57z M284.43,55.5l-2.1-6.94h-0.57l-2.16,6.94H284.43z"/>
		<path class="st7" d="M306.77,46.6v5.52h-2.23v-3.57h-3.46v13.02h2.45v1.97h-7.99v-1.97h2.48V48.55h-3.5v3.57h-2.23V46.6H306.77z"
			/>
		<path class="st7" d="M308.52,63.54v-1.97h2.2V48.55h-2.2V46.6h14.48v4.85h-2.31v-2.9h-6.93v5.28h4.57v-1.62h1.42v5.27h-1.42v-1.58
			h-4.56v5.66h6.94v-2.98h2.31v4.95H308.52z"/>
		<path class="st7" d="M341.27,61.57v1.97h-4.52l-4.11-7.76h-2.23v5.8h2.23v1.97H325v-1.97h2.37V48.55H325V46.6h8.35
			c0.85,0,1.64,0.08,2.36,0.25c0.72,0.17,1.34,0.43,1.87,0.79c0.52,0.36,0.93,0.82,1.23,1.38c0.29,0.56,0.44,1.24,0.44,2.03
			c0,1.13-0.3,2.07-0.91,2.8c-0.6,0.73-1.55,1.26-2.83,1.59l3.37,6.13H341.27z M330.41,53.75h2.77c0.59,0,1.07-0.08,1.46-0.24
			c0.39-0.16,0.69-0.36,0.93-0.61s0.4-0.53,0.49-0.85c0.09-0.32,0.14-0.64,0.14-0.96c0-0.34-0.06-0.67-0.18-0.98
			c-0.12-0.31-0.3-0.58-0.54-0.81c-0.24-0.23-0.53-0.42-0.88-0.55c-0.35-0.13-0.75-0.2-1.22-0.2h-2.97V53.75z"/>
		<path class="st7" d="M356.21,48.55h-2.36V46.6h7.12v1.95h-2.48v14.99h-3.01l-8.24-14.02v12.06h2.37v1.97h-7.05v-1.97h2.41V48.55
			h-2.41V46.6h6.08l7.57,12.91V48.55z"/>
		<path class="st7" d="M362.59,63.54v-1.97h2.15V48.55h-2.15V46.6h7.35v1.95h-2.15v13.02h2.15v1.97H362.59z"/>
		<path class="st7" d="M386.23,46.6v5.52H384v-3.57h-3.46v13.02h2.45v1.97h-7.99v-1.97h2.48V48.55h-3.5v3.57h-2.23V46.6H386.23z"/>
		<path class="st7" d="M387.42,61.57h2.05l4.07-13.02h-1.65V46.6h8.94v1.95h-1.65l4.13,13.02h2.01v1.97h-7.18v-1.97h2.17l-1.09-4.11
			h-5.99l-1.12,4.11h2.22v1.97h-6.91V61.57z M398.65,55.5l-2.1-6.94h-0.57l-2.16,6.94H398.65z"/>
		<path class="st7" d="M413.21,63.8c-1.54,0-2.87-0.5-3.97-1.51l-0.01,1.24h-2.38v-5.67h2.38v1.53c0.45,0.72,0.95,1.26,1.52,1.62
			s1.25,0.55,2.06,0.55c0.44,0,0.83-0.06,1.19-0.19c0.36-0.12,0.66-0.29,0.92-0.51c0.26-0.22,0.45-0.48,0.59-0.78
			c0.14-0.3,0.21-0.63,0.21-0.99c0-0.48-0.11-0.87-0.33-1.19c-0.22-0.32-0.52-0.59-0.91-0.82c-0.38-0.23-0.83-0.43-1.35-0.6
			s-1.08-0.35-1.67-0.52c-0.62-0.18-1.22-0.39-1.79-0.63c-0.57-0.24-1.07-0.54-1.51-0.91c-0.43-0.37-0.78-0.82-1.04-1.35
			c-0.26-0.53-0.39-1.18-0.39-1.94c0-0.75,0.13-1.41,0.4-1.98c0.26-0.57,0.63-1.04,1.1-1.42c0.47-0.38,1.02-0.67,1.66-0.86
			c0.64-0.19,1.33-0.29,2.08-0.29c0.66,0,1.28,0.1,1.87,0.31s1.11,0.51,1.58,0.92V46.6h2.36v4.89h-2.36v-1.23
			c-0.42-0.49-0.88-0.86-1.39-1.1c-0.51-0.24-1.09-0.36-1.76-0.36c-0.45,0-0.84,0.05-1.18,0.16c-0.34,0.11-0.64,0.26-0.88,0.44
			s-0.43,0.4-0.55,0.65c-0.13,0.25-0.19,0.52-0.19,0.8c0,0.48,0.13,0.88,0.4,1.19c0.27,0.31,0.61,0.58,1.04,0.8
			c0.43,0.22,0.92,0.42,1.47,0.59c0.55,0.17,1.12,0.35,1.69,0.54c0.57,0.19,1.13,0.41,1.69,0.66c0.55,0.25,1.04,0.56,1.47,0.94
			c0.43,0.38,0.77,0.84,1.04,1.39s0.4,1.22,0.4,2c0,0.76-0.15,1.44-0.44,2.03c-0.29,0.59-0.69,1.1-1.18,1.51
			c-0.5,0.41-1.08,0.73-1.74,0.95C414.63,63.69,413.93,63.8,413.21,63.8z"/>
		<path class="st7" d="M36.3,89.18c-1.54,0-2.87-0.5-3.97-1.51l-0.01,1.24h-2.38v-5.67h2.38v1.53c0.45,0.72,0.95,1.26,1.52,1.62
			s1.25,0.55,2.06,0.55c0.44,0,0.83-0.06,1.19-0.19c0.36-0.12,0.66-0.29,0.92-0.51c0.26-0.22,0.45-0.48,0.59-0.78
			c0.14-0.3,0.21-0.63,0.21-0.99c0-0.48-0.11-0.87-0.33-1.19c-0.22-0.32-0.52-0.59-0.91-0.82c-0.38-0.23-0.83-0.43-1.35-0.6
			s-1.08-0.35-1.67-0.52c-0.62-0.18-1.22-0.39-1.79-0.63c-0.57-0.24-1.07-0.54-1.51-0.91c-0.43-0.37-0.78-0.82-1.04-1.35
			c-0.26-0.53-0.39-1.18-0.39-1.94c0-0.75,0.13-1.41,0.4-1.98c0.26-0.57,0.63-1.04,1.1-1.42c0.47-0.38,1.02-0.67,1.66-0.86
			c0.64-0.19,1.33-0.29,2.08-0.29c0.66,0,1.28,0.1,1.87,0.31s1.11,0.51,1.58,0.92v-1.21h2.36v4.89H38.5v-1.23
			c-0.42-0.49-0.88-0.86-1.39-1.1c-0.51-0.24-1.09-0.36-1.76-0.36c-0.45,0-0.84,0.05-1.18,0.16c-0.34,0.11-0.64,0.26-0.88,0.44
			s-0.43,0.4-0.55,0.65c-0.13,0.25-0.19,0.52-0.19,0.8c0,0.48,0.13,0.88,0.4,1.19c0.27,0.31,0.61,0.58,1.04,0.8
			c0.43,0.22,0.92,0.42,1.47,0.59c0.55,0.17,1.12,0.35,1.69,0.54c0.57,0.19,1.13,0.41,1.69,0.66c0.55,0.25,1.04,0.56,1.47,0.94
			c0.43,0.38,0.77,0.84,1.04,1.39s0.4,1.22,0.4,2c0,0.76-0.15,1.44-0.44,2.03c-0.29,0.59-0.69,1.1-1.18,1.51
			c-0.5,0.41-1.08,0.73-1.74,0.95C37.72,89.07,37.02,89.18,36.3,89.18z"/>
		<path class="st7" d="M58.4,71.98v5.15h-2.23v-3.19h-3.46v13.02h2.45v1.97h-7.99v-1.97h2.48V73.93h-3.5v3.19h-2.23v-5.15H58.4z"/>
		<path class="st7" d="M64.47,85.6v3.32h-3.44V85.6H64.47z"/>
		<path class="st7" d="M73.57,88.92v-1.97h2.2V73.93h-2.2v-1.95h14.48v4.85h-2.31v-2.9h-6.93v5.28h4.57V77.6h1.42v5.27h-1.42v-1.58
			h-4.56v5.66h6.94v-2.98h2.31v4.95H73.57z"/>
		<path class="st7" d="M110.96,73.93h-2.01v-1.95h6.44v1.95h-1.99l-4.61,14.99h-2.56l-3.76-12.25l-3.71,12.25h-2.52L91.5,73.93
			h-2.02v-1.95h6.89v1.95h-1.99l3.32,11.05l3.23-11.05h-1.81v-1.95h7.03v1.95h-1.77l3.3,11.05L110.96,73.93z"/>
		<path class="st7" d="M113.91,86.95h2.05l4.07-13.02h-1.65v-1.95h8.94v1.95h-1.65l4.13,13.02h2.01v1.97h-7.18v-1.97h2.17
			l-1.09-4.11h-5.99l-1.12,4.11h2.22v1.97h-6.91V86.95z M125.14,80.87l-2.1-6.94h-0.57l-2.16,6.94H125.14z"/>
		<path class="st7" d="M133.08,88.92v-1.97h2.36V73.93h-2.36v-1.95h7.72v1.95h-2.33v13.02h5.7v-5.09h2.51v7.05H133.08z"/>
		<path class="st7" d="M148.33,88.92v-1.97h2.41V73.93h-2.41v-1.95h8.38c1.51,0,2.82,0.22,3.93,0.65s2.04,1.02,2.77,1.78
			c0.73,0.75,1.28,1.64,1.64,2.66c0.36,1.02,0.54,2.11,0.54,3.28c0,1.32-0.19,2.51-0.56,3.57c-0.37,1.06-0.93,1.96-1.67,2.7
			c-0.74,0.74-1.67,1.31-2.79,1.71c-1.12,0.4-2.41,0.6-3.89,0.6H148.33z M153.79,86.95h2.63c1.09,0,2.01-0.16,2.78-0.49
			c0.77-0.33,1.39-0.78,1.87-1.36c0.48-0.58,0.83-1.27,1.05-2.07c0.22-0.8,0.33-1.67,0.33-2.61c0-0.93-0.11-1.79-0.33-2.59
			c-0.22-0.79-0.57-1.48-1.05-2.06c-0.47-0.58-1.08-1.03-1.83-1.36s-1.65-0.49-2.7-0.49h-2.75V86.95z"/>
		<path class="st7" d="M175.01,89.18c-1.28,0-2.33-0.16-3.15-0.49c-0.82-0.33-1.46-0.78-1.94-1.35c-0.47-0.58-0.8-1.25-0.98-2.03
			c-0.18-0.78-0.26-1.62-0.26-2.53v-8.85h-2.12v-1.95h7.08v1.95h-1.92v9.33c0,0.59,0.06,1.11,0.19,1.57s0.32,0.85,0.59,1.16
			c0.27,0.31,0.62,0.55,1.05,0.72c0.43,0.17,0.94,0.25,1.55,0.25c0.63,0,1.17-0.08,1.61-0.24c0.44-0.16,0.8-0.4,1.07-0.73
			c0.27-0.32,0.47-0.72,0.6-1.18c0.13-0.47,0.19-1.01,0.19-1.61v-9.26h-1.9v-1.95h6.59v1.95h-2.15v9.13c0,1.08-0.14,2-0.42,2.77
			c-0.28,0.77-0.69,1.41-1.22,1.9c-0.53,0.5-1.17,0.86-1.92,1.09C176.79,89.06,175.95,89.18,175.01,89.18z"/>
		<path class="st7" d="M191.27,89.18c-1.54,0-2.87-0.5-3.97-1.51l-0.01,1.24h-2.38v-5.67h2.38v1.53c0.45,0.72,0.95,1.26,1.52,1.62
			s1.25,0.55,2.06,0.55c0.44,0,0.83-0.06,1.19-0.19c0.36-0.12,0.66-0.29,0.92-0.51c0.26-0.22,0.45-0.48,0.59-0.78
			c0.14-0.3,0.21-0.63,0.21-0.99c0-0.48-0.11-0.87-0.33-1.19c-0.22-0.32-0.52-0.59-0.91-0.82c-0.38-0.23-0.83-0.43-1.35-0.6
			s-1.08-0.35-1.67-0.52c-0.62-0.18-1.22-0.39-1.79-0.63c-0.57-0.24-1.07-0.54-1.51-0.91c-0.43-0.37-0.78-0.82-1.04-1.35
			c-0.26-0.53-0.39-1.18-0.39-1.94c0-0.75,0.13-1.41,0.4-1.98c0.26-0.57,0.63-1.04,1.1-1.42c0.47-0.38,1.02-0.67,1.66-0.86
			c0.64-0.19,1.33-0.29,2.08-0.29c0.66,0,1.28,0.1,1.87,0.31s1.11,0.51,1.58,0.92v-1.21h2.36v4.89h-2.36v-1.23
			c-0.42-0.49-0.88-0.86-1.39-1.1c-0.51-0.24-1.09-0.36-1.76-0.36c-0.45,0-0.84,0.05-1.18,0.16c-0.34,0.11-0.64,0.26-0.88,0.44
			s-0.43,0.4-0.55,0.65c-0.13,0.25-0.19,0.52-0.19,0.8c0,0.48,0.13,0.88,0.4,1.19c0.27,0.31,0.61,0.58,1.04,0.8
			c0.43,0.22,0.92,0.42,1.47,0.59c0.55,0.17,1.12,0.35,1.69,0.54c0.57,0.19,1.13,0.41,1.69,0.66c0.55,0.25,1.04,0.56,1.47,0.94
			c0.43,0.38,0.77,0.84,1.04,1.39s0.4,1.22,0.4,2c0,0.76-0.15,1.44-0.44,2.03c-0.29,0.59-0.69,1.1-1.18,1.51
			c-0.5,0.41-1.08,0.73-1.74,0.95C192.69,89.07,192,89.18,191.27,89.18z"/>
		<path class="st7" d="M211.71,89.18c-1.54,0-2.87-0.5-3.97-1.51l-0.01,1.24h-2.38v-5.67h2.38v1.53c0.45,0.72,0.95,1.26,1.52,1.62
			s1.25,0.55,2.06,0.55c0.44,0,0.83-0.06,1.19-0.19c0.36-0.12,0.66-0.29,0.92-0.51c0.26-0.22,0.45-0.48,0.59-0.78
			c0.14-0.3,0.21-0.63,0.21-0.99c0-0.48-0.11-0.87-0.33-1.19c-0.22-0.32-0.52-0.59-0.91-0.82c-0.38-0.23-0.83-0.43-1.35-0.6
			s-1.08-0.35-1.67-0.52c-0.62-0.18-1.22-0.39-1.79-0.63c-0.57-0.24-1.07-0.54-1.51-0.91c-0.43-0.37-0.78-0.82-1.04-1.35
			c-0.26-0.53-0.39-1.18-0.39-1.94c0-0.75,0.13-1.41,0.4-1.98c0.26-0.57,0.63-1.04,1.1-1.42c0.47-0.38,1.02-0.67,1.66-0.86
			c0.64-0.19,1.33-0.29,2.08-0.29c0.66,0,1.28,0.1,1.87,0.31s1.11,0.51,1.58,0.92v-1.21h2.36v4.89h-2.36v-1.23
			c-0.42-0.49-0.88-0.86-1.39-1.1c-0.51-0.24-1.09-0.36-1.76-0.36c-0.45,0-0.84,0.05-1.18,0.16c-0.34,0.11-0.64,0.26-0.88,0.44
			s-0.43,0.4-0.55,0.65c-0.13,0.25-0.19,0.52-0.19,0.8c0,0.48,0.13,0.88,0.4,1.19c0.27,0.31,0.61,0.58,1.04,0.8
			c0.43,0.22,0.92,0.42,1.47,0.59c0.55,0.17,1.12,0.35,1.69,0.54c0.57,0.19,1.13,0.41,1.69,0.66c0.55,0.25,1.04,0.56,1.47,0.94
			c0.43,0.38,0.77,0.84,1.04,1.39s0.4,1.22,0.4,2c0,0.76-0.15,1.44-0.44,2.03c-0.29,0.59-0.69,1.1-1.18,1.51
			c-0.5,0.41-1.08,0.73-1.74,0.95C213.13,89.07,212.43,89.18,211.71,89.18z"/>
		<path class="st7" d="M227.69,89.18c-1.46,0-2.73-0.23-3.83-0.69c-1.09-0.46-2-1.08-2.73-1.86s-1.28-1.69-1.64-2.73
			c-0.36-1.04-0.54-2.14-0.54-3.32c0-1.28,0.2-2.44,0.6-3.5c0.4-1.06,0.98-1.96,1.73-2.72c0.75-0.76,1.67-1.35,2.75-1.78
			c1.08-0.42,2.31-0.63,3.67-0.63c1.1,0,2.08,0.18,2.95,0.54c0.87,0.36,1.63,0.84,2.28,1.45v-1.97h2.29v5.34h-2.16
			c-0.28-0.55-0.6-1.03-0.97-1.43c-0.37-0.4-0.77-0.72-1.21-0.98c-0.44-0.25-0.9-0.44-1.4-0.56c-0.5-0.12-1.02-0.17-1.55-0.17
			c-0.88,0-1.67,0.16-2.37,0.48c-0.7,0.32-1.29,0.76-1.78,1.33c-0.49,0.57-0.87,1.24-1.13,2.01s-0.39,1.62-0.39,2.55
			c0,0.9,0.12,1.75,0.36,2.53c0.24,0.78,0.6,1.46,1.08,2.03c0.48,0.57,1.07,1.03,1.78,1.35c0.71,0.33,1.52,0.49,2.44,0.49
			c0.61,0,1.21-0.08,1.78-0.24c0.58-0.16,1.1-0.41,1.58-0.75c0.48-0.34,0.89-0.77,1.25-1.3c0.35-0.52,0.62-1.15,0.81-1.88l2.38,1.13
			c-0.32,1.02-0.75,1.86-1.3,2.53s-1.17,1.21-1.87,1.61c-0.7,0.41-1.47,0.69-2.29,0.86C229.43,89.1,228.58,89.18,227.69,89.18z"/>
		<path class="st7" d="M237.34,88.92v-1.97h2.04V73.93h-2.04v-1.95h7.07v1.95h-1.98v5.05h7.04v-5.05h-1.97v-1.95h7.04v1.95h-2.04
			v13.02h2.04v1.97h-7.04v-1.97h1.97v-5.84h-7.04v5.84h1.98v1.97H237.34z"/>
		<path class="st7" d="M264.63,89.18c-1.28,0-2.33-0.16-3.15-0.49c-0.82-0.33-1.46-0.78-1.94-1.35c-0.47-0.58-0.8-1.25-0.98-2.03
			c-0.18-0.78-0.26-1.62-0.26-2.53v-8.85h-2.12v-1.95h7.08v1.95h-1.92v9.33c0,0.59,0.06,1.11,0.19,1.57s0.32,0.85,0.59,1.16
			c0.27,0.31,0.62,0.55,1.05,0.72c0.43,0.17,0.94,0.25,1.55,0.25c0.63,0,1.17-0.08,1.61-0.24c0.44-0.16,0.8-0.4,1.07-0.73
			c0.27-0.32,0.47-0.72,0.6-1.18c0.13-0.47,0.19-1.01,0.19-1.61v-9.26h-1.9v-1.95h6.59v1.95h-2.15v9.13c0,1.08-0.14,2-0.42,2.77
			c-0.28,0.77-0.69,1.41-1.22,1.9c-0.53,0.5-1.17,0.86-1.92,1.09C266.42,89.06,265.57,89.18,264.63,89.18z M263.31,66.85v2.58h-2.61
			v-2.58H263.31z M265.79,66.85h2.61v2.58h-2.61V66.85z"/>
		<path class="st7" d="M288.87,71.98v5.15h-2.23v-3.19h-3.46v13.02h2.45v1.97h-7.99v-1.97h2.48V73.93h-3.5v3.19h-2.23v-5.15H288.87z
			"/>
		<path class="st7" d="M290.91,88.92v-2.1l9.26-12.88h-6.59V77h-2.22v-5.02h12.56v1.87l-9.38,13.1h7.32v-3.26h2.2v5.23H290.91z"/>
		<path class="st7" d="M305.98,88.92v-1.97h2.2V73.93h-2.2v-1.95h14.48v4.85h-2.31v-2.9h-6.93v5.28h4.57V77.6h1.42v5.27h-1.42v-1.58
			h-4.56v5.66h6.94v-2.98h2.31v4.95H305.98z"/>
		<path class="st7" d="M336.09,73.93h-2.36v-1.95h7.12v1.95h-2.48v14.99h-3.01l-8.24-14.02v12.06h2.37v1.97h-7.05v-1.97h2.41V73.93
			h-2.41v-1.95h6.08l7.57,12.91V73.93z"/>
		<path class="st7" d="M352.76,82.67v-2.09h6.51c-0.02,1.51-0.23,2.8-0.63,3.88c-0.4,1.08-0.96,1.97-1.69,2.68s-1.62,1.22-2.66,1.55
			s-2.21,0.49-3.51,0.49c-1.15,0-2.18-0.13-3.07-0.38s-1.68-0.6-2.35-1.03c-0.67-0.44-1.24-0.94-1.7-1.51
			c-0.46-0.57-0.84-1.18-1.13-1.82s-0.49-1.3-0.62-1.97s-0.19-1.32-0.19-1.94c0-1.04,0.17-2.08,0.52-3.1
			c0.34-1.02,0.87-1.94,1.59-2.75c0.72-0.81,1.62-1.47,2.72-1.97c1.1-0.5,2.4-0.75,3.92-0.75c1.13,0,2.16,0.18,3.08,0.53
			c0.92,0.35,1.69,0.82,2.31,1.39v-1.91h2.38v5.35h-2.16c-0.51-1.05-1.21-1.83-2.1-2.36c-0.89-0.53-1.94-0.79-3.16-0.79
			c-0.91,0-1.72,0.15-2.44,0.46c-0.72,0.31-1.32,0.74-1.82,1.3c-0.5,0.56-0.88,1.22-1.14,1.99c-0.26,0.77-0.39,1.61-0.39,2.52
			c0,0.98,0.13,1.87,0.4,2.67c0.27,0.8,0.66,1.48,1.17,2.04c0.51,0.56,1.13,1,1.85,1.3c0.72,0.3,1.54,0.46,2.45,0.46
			c1.68,0,2.95-0.37,3.8-1.12c0.85-0.75,1.3-1.79,1.35-3.13H352.76z"/>
		<path class="st7" d="M360.88,88.92v-1.97h2.15V73.93h-2.15v-1.95h7.35v1.95h-2.15v13.02h2.15v1.97H360.88z"/>
		<path class="st7" d="M370.03,88.92v-1.97h2.36V73.93h-2.36v-1.95h7.72v1.95h-2.33v13.02h5.7v-5.09h2.51v7.05H370.03z"/>
		<path class="st7" d="M385.29,88.92v-1.97h2.41V73.93h-2.41v-1.95h8.38c1.51,0,2.82,0.22,3.93,0.65s2.04,1.02,2.77,1.78
			c0.73,0.75,1.28,1.64,1.64,2.66c0.36,1.02,0.54,2.11,0.54,3.28c0,1.32-0.19,2.51-0.56,3.57c-0.37,1.06-0.93,1.96-1.67,2.7
			c-0.74,0.74-1.67,1.31-2.79,1.71c-1.12,0.4-2.41,0.6-3.89,0.6H385.29z M390.75,86.95h2.63c1.09,0,2.01-0.16,2.78-0.49
			c0.77-0.33,1.39-0.78,1.87-1.36c0.48-0.58,0.83-1.27,1.05-2.07c0.22-0.8,0.33-1.67,0.33-2.61c0-0.93-0.11-1.79-0.33-2.59
			c-0.22-0.79-0.57-1.48-1.05-2.06c-0.47-0.58-1.08-1.03-1.83-1.36s-1.65-0.49-2.7-0.49h-2.75V86.95z"/>
		<path class="st7" d="M403.91,88.92v-1.97h2.2V73.93h-2.2v-1.95h14.48v4.85h-2.31v-2.9h-6.93v5.28h4.57V77.6h1.42v5.27h-1.42v-1.58
			h-4.56v5.66h6.94v-2.98h2.31v4.95H403.91z"/>
		<path class="st7" d="M221.23,114.29v-1.97h2.41V99.31h-2.41v-1.95h8.38c1.51,0,2.82,0.22,3.93,0.65c1.12,0.43,2.04,1.02,2.77,1.78
			c0.73,0.75,1.28,1.64,1.64,2.66c0.36,1.02,0.54,2.11,0.54,3.28c0,1.32-0.19,2.51-0.56,3.57c-0.37,1.06-0.93,1.96-1.67,2.7
			c-0.74,0.74-1.67,1.31-2.79,1.71s-2.41,0.6-3.89,0.6H221.23z M226.69,112.33h2.63c1.09,0,2.01-0.16,2.78-0.49s1.39-0.78,1.87-1.36
			c0.48-0.58,0.83-1.27,1.05-2.07c0.22-0.8,0.33-1.67,0.33-2.61c0-0.93-0.11-1.79-0.33-2.59c-0.22-0.79-0.57-1.48-1.05-2.06
			c-0.47-0.58-1.08-1.03-1.83-1.36c-0.75-0.33-1.65-0.49-2.7-0.49h-2.75V112.33z"/>
		<path class="st7" d="M247.91,114.56c-1.28,0-2.33-0.16-3.15-0.49c-0.82-0.33-1.46-0.78-1.94-1.35c-0.47-0.58-0.8-1.25-0.98-2.03
			c-0.18-0.78-0.26-1.62-0.26-2.53v-8.85h-2.12v-1.95h7.08v1.95h-1.92v9.33c0,0.58,0.06,1.11,0.19,1.57s0.32,0.85,0.59,1.16
			s0.62,0.55,1.05,0.72c0.43,0.17,0.94,0.25,1.55,0.25c0.63,0,1.17-0.08,1.61-0.24c0.44-0.16,0.8-0.4,1.07-0.72
			c0.27-0.32,0.47-0.71,0.6-1.18c0.13-0.47,0.19-1.01,0.19-1.61v-9.26h-1.9v-1.95h6.59v1.95h-2.15v9.13c0,1.08-0.14,2-0.42,2.77
			c-0.28,0.77-0.69,1.41-1.22,1.9c-0.53,0.5-1.17,0.86-1.92,1.09C249.69,114.44,248.85,114.56,247.91,114.56z M246.59,92.23v2.58
			h-2.61v-2.58H246.59z M249.07,92.23h2.61v2.58h-2.61V92.23z"/>
		<path class="st7" d="M273.99,112.33v1.97h-4.52l-4.11-7.76h-2.23v5.8h2.23v1.97h-7.64v-1.97h2.37V99.31h-2.37v-1.95h8.35
			c0.85,0,1.64,0.08,2.36,0.25c0.72,0.17,1.34,0.43,1.87,0.79c0.52,0.36,0.93,0.82,1.23,1.38c0.29,0.56,0.44,1.24,0.44,2.03
			c0,1.13-0.3,2.07-0.91,2.8c-0.6,0.73-1.55,1.26-2.83,1.59l3.37,6.13H273.99z M263.13,104.51h2.77c0.59,0,1.07-0.08,1.46-0.24
			c0.39-0.16,0.69-0.36,0.93-0.61c0.23-0.25,0.4-0.54,0.49-0.85c0.09-0.32,0.14-0.64,0.14-0.96c0-0.34-0.06-0.67-0.18-0.98
			c-0.12-0.31-0.3-0.58-0.54-0.81s-0.53-0.42-0.88-0.55c-0.35-0.13-0.75-0.2-1.22-0.2h-2.97V104.51z"/>
		<path class="st7" d="M275.34,114.29v-1.97h2.2V99.31h-2.2v-1.95h14.48v4.85h-2.31v-2.9h-6.93v5.28h4.57v-1.62h1.42v5.27h-1.42
			v-1.58h-4.56v5.66h6.94v-2.98h2.31v4.95H275.34z"/>
		<path class="st7" d="M305.45,99.31h-2.36v-1.95h7.12v1.95h-2.48v14.99h-3.01l-8.24-14.02v12.06h2.37v1.97h-7.05v-1.97h2.41V99.31
			h-2.41v-1.95h6.08l7.57,12.91V99.31z"/>
		<path class="st7" d="M326.08,112.33v1.97h-7.42v-1.97h2.41V99.31h-2.58v-1.95h5.31v14.97H326.08z"/>
		<path class="st7" d="M333.66,114.56c-1.73,0-3.09-0.43-4.07-1.3c-0.98-0.86-1.55-2.1-1.7-3.69h2.54c0.18,0.94,0.51,1.66,1,2.17
			c0.49,0.51,1.21,0.76,2.16,0.76c0.53,0,1-0.09,1.4-0.27c0.4-0.18,0.74-0.42,1.01-0.73s0.47-0.68,0.61-1.11
			c0.13-0.43,0.2-0.89,0.2-1.38c0-0.6-0.08-1.13-0.23-1.58s-0.37-0.82-0.65-1.11s-0.61-0.51-0.98-0.66
			c-0.38-0.14-0.79-0.22-1.23-0.22c-0.55,0-1.08,0.11-1.59,0.33c-0.51,0.22-1.01,0.58-1.49,1.06l-1.59-0.79v-8.7h9.6v3.57h-2.17
			v-1.62h-5.38c-0.01,0.14-0.03,0.35-0.05,0.62c-0.02,0.27-0.05,0.59-0.08,0.93c-0.03,0.35-0.06,0.71-0.08,1.09
			c-0.03,0.38-0.06,0.74-0.08,1.09c-0.03,0.34-0.05,0.66-0.07,0.93c-0.02,0.28-0.03,0.49-0.04,0.63c0.47-0.49,0.99-0.85,1.56-1.06
			c0.57-0.21,1.2-0.32,1.91-0.32c0.83,0,1.58,0.14,2.26,0.42c0.68,0.28,1.26,0.67,1.74,1.17c0.48,0.5,0.85,1.1,1.11,1.79
			c0.26,0.7,0.39,1.47,0.39,2.3c0,0.74-0.11,1.44-0.34,2.12c-0.23,0.68-0.58,1.28-1.07,1.8c-0.48,0.52-1.1,0.94-1.86,1.26
			C335.63,114.4,334.72,114.56,333.66,114.56z"/>
		<path class="st7" d="M350.93,101.79c-0.15-0.73-0.44-1.32-0.89-1.76s-1.02-0.66-1.74-0.66c-0.59,0-1.1,0.14-1.55,0.41
			s-0.83,0.66-1.14,1.16s-0.54,1.11-0.7,1.82s-0.25,1.5-0.26,2.38c0.49-0.44,1.08-0.76,1.75-0.98c0.67-0.21,1.4-0.32,2.17-0.32
			c0.73,0,1.41,0.13,2.02,0.38c0.61,0.25,1.14,0.61,1.57,1.07c0.43,0.46,0.77,1,1.01,1.63s0.36,1.32,0.36,2.08
			c0,0.85-0.12,1.64-0.37,2.35c-0.25,0.71-0.6,1.32-1.07,1.83c-0.46,0.51-1.03,0.91-1.7,1.19c-0.67,0.28-1.43,0.42-2.27,0.42
			c-1.03,0-1.93-0.19-2.7-0.58c-0.77-0.38-1.41-0.94-1.92-1.67s-0.89-1.63-1.15-2.7c-0.26-1.07-0.38-2.29-0.38-3.65
			c0-1.35,0.13-2.56,0.38-3.65c0.26-1.09,0.64-2.02,1.16-2.79c0.52-0.77,1.17-1.37,1.95-1.78c0.78-0.42,1.7-0.63,2.76-0.63
			c0.73,0,1.38,0.1,1.97,0.31c0.59,0.21,1.1,0.51,1.52,0.89s0.76,0.85,1.01,1.4c0.25,0.55,0.4,1.16,0.45,1.84H350.93z
			 M344.71,107.23c0.06,0.85,0.15,1.62,0.29,2.3c0.14,0.68,0.34,1.25,0.61,1.71c0.27,0.46,0.59,0.82,0.99,1.07s0.88,0.37,1.44,0.37
			c0.47,0,0.89-0.09,1.25-0.26c0.36-0.17,0.67-0.41,0.91-0.72c0.25-0.31,0.43-0.67,0.56-1.09c0.13-0.42,0.19-0.88,0.19-1.39
			c0-0.47-0.06-0.91-0.19-1.3c-0.13-0.39-0.31-0.73-0.56-1.02c-0.25-0.28-0.55-0.5-0.91-0.66c-0.36-0.16-0.77-0.24-1.23-0.24
			c-0.24,0-0.51,0.03-0.8,0.08c-0.29,0.05-0.59,0.13-0.89,0.23c-0.3,0.1-0.6,0.23-0.89,0.38
			C345.2,106.84,344.94,107.02,344.71,107.23z"/>
		<path class="st7" d="M362.01,114.79c-1.02,0-1.91-0.21-2.67-0.61c-0.76-0.41-1.39-0.99-1.89-1.76c-0.5-0.76-0.88-1.68-1.13-2.76
			s-0.38-2.28-0.38-3.61s0.13-2.53,0.38-3.6s0.63-1.99,1.13-2.75c0.5-0.76,1.13-1.34,1.89-1.75c0.76-0.41,1.65-0.61,2.67-0.61
			s1.91,0.21,2.68,0.61c0.76,0.41,1.4,0.99,1.9,1.74c0.51,0.75,0.89,1.67,1.14,2.74c0.25,1.07,0.38,2.28,0.38,3.62
			c0,1.34-0.13,2.54-0.38,3.62s-0.63,1.99-1.14,2.75c-0.51,0.76-1.14,1.35-1.9,1.76C363.93,114.59,363.03,114.79,362.01,114.79z
			 M362.01,112.8c0.56,0,1.04-0.13,1.46-0.38s0.76-0.66,1.02-1.21c0.27-0.55,0.47-1.25,0.6-2.1c0.13-0.85,0.2-1.87,0.2-3.06
			c0-1.2-0.07-2.22-0.2-3.07s-0.34-1.55-0.61-2.09s-0.61-0.94-1.02-1.19c-0.41-0.25-0.89-0.38-1.45-0.38c-0.6,0-1.11,0.15-1.53,0.45
			s-0.75,0.74-1,1.31c-0.26,0.57-0.44,1.28-0.55,2.12c-0.11,0.84-0.17,1.8-0.17,2.86c0,1.08,0.06,2.04,0.17,2.87
			c0.11,0.84,0.29,1.54,0.55,2.11c0.26,0.57,0.59,1.01,1,1.3S361.41,112.8,362.01,112.8z"/>
		<path class="st7" d="M376.55,114.29v-1.97h2.2V99.31h-2.2v-1.95h14.48v4.85h-2.31v-2.9h-6.93v5.28h4.57v-1.62h1.42v5.27h-1.42
			v-1.58h-4.56v5.66h6.94v-2.98h2.31v4.95H376.55z"/>
		<path class="st7" d="M397.81,110.98v3.32h-3.44v-3.32H397.81z"/>
		<path class="st7" d="M399.11,99.31h-2.09v-1.95h7.26v1.95h-2.04l4.13,11.7l4.07-11.7h-2.01v-1.95h6.72v1.95h-2.09l-5.6,14.99
			h-2.62L399.11,99.31z"/>
		<path class="st7" d="M417.73,110.98v3.32h-3.44v-3.32H417.73z"/>
	</g>
</g>
</svg>
